<svg width="65" height="50" viewBox="0 0 65 50" fill="none" xmlns="http://www.w3.org/2000/svg">
<path d="M63.1463 26.5911C62.5658 25.3083 61.979 24.0341 61.3923 22.7573C60.6453 21.1321 59.897 19.5079 59.1472 17.8846C58.4116 16.2971 57.6746 14.7046 56.9361 13.1072C56.3905 11.9166 55.8427 10.7329 55.2929 9.55614C54.3191 7.43681 53.2221 5.35322 51.717 3.86492C50.1217 2.33496 48.3083 1.30819 46.402 0.855585C45.6062 0.657267 44.8011 0.541857 43.9933 0.510301C41.9333 0.449383 39.9029 1.20136 38.134 2.68023C36.4332 4.12388 35.0449 6.16878 33.5461 7.9875C33.4601 8.11108 33.356 8.20703 33.241 8.26873C33.1258 8.3304 33.0026 8.35634 32.8797 8.34475C32.7567 8.33314 32.637 8.28426 32.529 8.20149C32.4208 8.11874 32.3268 8.00408 32.2535 7.86545C31.0651 5.90089 29.7831 3.99588 28.2418 2.54629C26.6832 1.15074 24.9046 0.30976 23.0608 0.0965565L22.9332 0.0786969C21.0084 -0.147434 19.0705 0.114741 17.2122 0.852609C16.9274 0.962742 16.6445 1.09074 16.3618 1.23361C14.5441 2.17421 13.1197 3.92444 11.8632 5.94853C10.6599 7.89223 9.65219 10.0503 8.60621 12.1607L4.11187 21.2244C2.63857 24.1921 1.13337 27.1032 0.429666 30.6542C0.00447003 32.8064 -0.157105 35.119 0.185178 37.3068C0.655021 40.3191 1.68825 43.1737 3.31038 45.2871C5.03242 47.5373 7.38588 48.6416 9.7032 48.9096C12.2671 49.2072 15.1053 48.2459 17.0952 45.8795C17.5077 45.3882 18.1052 44.7633 18.2008 43.9685C18.307 43.0754 18.0967 42.114 17.8988 41.2896C17.176 38.2504 17.0485 37.6671 17.0485 37.6671C17.0485 37.6671 16.7594 36.2978 15.9855 37.414C15.0416 38.7683 14.374 40.328 13.1324 41.2211C12.2269 41.8633 11.2129 42.1453 10.2008 42.0367C9.1887 41.9281 8.21727 41.4328 7.39227 40.6048C4.92612 38.1077 4.71778 33.863 5.90407 30.2225C6.19321 29.3296 6.54186 28.4841 6.88628 27.6389C7.75794 25.5375 8.74652 23.5372 9.70959 21.519C11.219 18.352 12.686 15.0777 14.3485 12.0714C15.4816 10.0294 16.8167 7.99642 18.575 7.03795C19.5641 6.51008 20.6221 6.28272 21.6789 6.37098C22.7355 6.45927 23.7668 6.86112 24.7041 7.54993C26.9279 9.18109 28.6011 11.8005 30.0553 14.6104C31.1522 16.7267 32.2812 18.8044 33.4206 20.885C35.8089 25.2506 38.1971 29.6163 40.5852 33.9819C44.3483 40.8578 48.173 51.1182 55.4672 49.9008C57.3805 49.5794 59.2131 48.5108 60.8608 47.1207C60.9415 47.0523 61.0223 46.9897 61.0968 46.9154C66.603 41.3162 65.2977 31.3149 63.1463 26.5911ZM59.6915 39.0393C59.1806 40.2343 58.4528 41.2188 57.5818 41.8923C56.711 42.5656 55.7284 42.9041 54.7337 42.8731C51.0047 42.7539 48.8766 38.1432 46.8675 34.3898C45.7472 32.2823 44.6161 30.1779 43.4788 28.0973L42.7686 26.7846L42.048 25.469L41.34 24.1832L40.6554 22.9151C40.4386 22.5182 40.2202 22.1213 40.0006 21.7244L39.3819 20.5963L38.8079 19.5485L38.285 18.596L37.8236 17.7507C37.6897 17.5126 37.5578 17.2714 37.426 17.0304L37.105 16.435L36.8668 16.0005L36.6544 15.6403C36.4915 15.3807 36.3607 15.0849 36.2674 14.7652C36.0739 14.021 36.3375 13.4852 36.7095 12.9792C38.7356 10.2408 41.036 6.8415 44.0484 6.8415C45.628 6.8415 47.3055 7.35347 48.6193 8.62745C49.7992 9.77046 50.6434 11.6904 51.4468 13.3245C52.3101 15.0777 53.1158 16.8964 53.9663 18.6526C55.5777 21.9953 57.1551 25.3768 58.6009 28.8624C59.8807 31.934 61.1308 35.5834 59.7 39.0393H59.6915Z" fill="url(#paint0_linear_802_585)"/>
<path d="M39.8688 43.641C37.7196 46.8201 35.3108 49.2042 32.0984 49.5079C29.7637 49.7123 27.4456 48.84 25.4985 47.0247C23.5516 45.2093 22.083 42.5507 21.3175 39.4559C20.5245 36.2399 20.5863 32.7311 21.4918 29.5738C22.4656 26.2339 24.179 23.3437 25.8118 20.5963V20.5814L26.237 19.8611C26.8876 18.7478 27.3766 19.8372 27.3766 19.8372C27.3766 19.8372 28.7882 22.0905 29.4217 23.2306C30.017 24.3021 29.494 25.2516 28.9242 26.0583C26.7155 29.1897 24.6724 34.22 26.4496 38.5273C27.7614 41.6676 30.7356 43.01 33.1699 41.9652C34.7155 41.2896 35.5446 39.8458 36.5714 38.2327C37.3326 37.0419 37.8471 38.3338 37.8471 38.3338C37.8471 38.3338 38.8782 39.9292 39.6923 41.3104C40.5066 42.6915 39.8688 43.641 39.8688 43.641Z" fill="url(#paint1_linear_802_585)"/>
<defs>
<linearGradient id="paint0_linear_802_585" x1="0.00447003" y1="24.9927" x2="65.0022" y2="24.9927" gradientUnits="userSpaceOnUse">
<stop stop-color="#56C1A9"/>
<stop offset="1" stop-color="#1CAAB0"/>
</linearGradient>
<linearGradient id="paint1_linear_802_585" x1="1909.49" y1="3512.06" x2="3669.03" y2="3512.06" gradientUnits="userSpaceOnUse">
<stop stop-color="#56C1A9"/>
<stop offset="1" stop-color="#1CAAB0"/>
</linearGradient>
</defs>
</svg>
