<svg width="44" height="44" viewBox="0 0 44 44" fill="none" xmlns="http://www.w3.org/2000/svg">
<g filter="url(#filter0_d_178_714)">
<path d="M38.032 7.90333L32.0954 1.96666C31.3205 1.23887 30.3052 0.821275 29.2426 0.79331C28.1799 0.765345 27.144 1.12896 26.332 1.815L6.83202 21.315C6.13168 22.0213 5.69562 22.9469 5.59702 23.9367L4.66536 32.9717C4.63617 33.289 4.67735 33.6089 4.78596 33.9085C4.89456 34.2081 5.06793 34.4801 5.29369 34.705C5.49614 34.9058 5.73624 35.0647 6.00023 35.1725C6.26421 35.2803 6.54688 35.335 6.83202 35.3333H7.02702L16.062 34.51C17.0517 34.4114 17.9774 33.9753 18.6837 33.275L38.1837 13.775C38.9405 12.9754 39.3496 11.9084 39.3211 10.8078C39.2927 9.70722 38.8291 8.66276 38.032 7.90333ZM15.672 30.1767L9.17202 30.7833L9.75702 24.2833L21.9987 12.1933L27.8487 18.0433L15.672 30.1767ZM30.6654 15.14L24.8587 9.33333L29.0837 5L34.9987 10.915L30.6654 15.14Z" fill="#F8F8F8"/>
</g>
<defs>
<filter id="filter0_d_178_714" x="0.65625" y="0.791809" width="42.666" height="42.5416" filterUnits="userSpaceOnUse" color-interpolation-filters="sRGB">
<feFlood flood-opacity="0" result="BackgroundImageFix"/>
<feColorMatrix in="SourceAlpha" type="matrix" values="0 0 0 0 0 0 0 0 0 0 0 0 0 0 0 0 0 0 127 0" result="hardAlpha"/>
<feOffset dy="4"/>
<feGaussianBlur stdDeviation="2"/>
<feComposite in2="hardAlpha" operator="out"/>
<feColorMatrix type="matrix" values="0 0 0 0 0 0 0 0 0 0 0 0 0 0 0 0 0 0 0.25 0"/>
<feBlend mode="normal" in2="BackgroundImageFix" result="effect1_dropShadow_178_714"/>
<feBlend mode="normal" in="SourceGraphic" in2="effect1_dropShadow_178_714" result="shape"/>
</filter>
</defs>
</svg>
