<svg width="40" height="32" viewBox="0 0 40 32" fill="none" xmlns="http://www.w3.org/2000/svg">
<path d="M33.5059 0.585449C36.4059 0.585449 38.7559 2.93545 38.7559 5.83545V25.3354C38.7559 28.2354 36.4059 30.5854 33.5059 30.5854H6.00586C4.61347 30.5854 3.27811 30.0323 2.29355 29.0478C1.30898 28.0632 0.755859 26.7278 0.755859 25.3354V5.83545C0.755859 2.93545 3.10586 0.585449 6.00586 0.585449H33.5059ZM36.2559 9.93645L20.3579 18.6804C20.1943 18.7704 20.0126 18.8226 19.8263 18.8331C19.6399 18.8437 19.4535 18.8123 19.2809 18.7414L19.1539 18.6814L3.25586 9.93545V25.3354C3.25586 26.0648 3.54559 26.7643 4.06132 27.28C4.57704 27.7957 5.27651 28.0854 6.00586 28.0854H33.5059C34.2352 28.0854 34.9347 27.7957 35.4504 27.28C35.9661 26.7643 36.2559 26.0648 36.2559 25.3354V9.93645ZM33.5059 3.08545H6.00586C5.27651 3.08545 4.57704 3.37518 4.06132 3.89091C3.54559 4.40663 3.25586 5.1061 3.25586 5.83545V7.08445L19.7559 16.1584L36.2559 7.08345V5.83545C36.2559 5.1061 35.9661 4.40663 35.4504 3.89091C34.9347 3.37518 34.2352 3.08545 33.5059 3.08545Z" fill="#F8F8F8" stroke="white"/>
</svg>
