<svg width="40" height="32" viewBox="0 0 40 32" fill="none" xmlns="http://www.w3.org/2000/svg">
<path d="M33.9209 0.585449C36.8209 0.585449 39.1709 2.93545 39.1709 5.83545V25.3354C39.1709 28.2354 36.8209 30.5854 33.9209 30.5854H6.4209C5.02851 30.5854 3.69315 30.0323 2.70859 29.0478C1.72402 28.0632 1.1709 26.7278 1.1709 25.3354V5.83545C1.1709 2.93545 3.5209 0.585449 6.4209 0.585449H33.9209ZM36.6709 9.93645L20.7729 18.6804C20.6093 18.7704 20.4277 18.8226 20.2413 18.8331C20.0549 18.8437 19.8686 18.8123 19.6959 18.7414L19.5689 18.6814L3.6709 9.93545V25.3354C3.6709 26.0648 3.96063 26.7643 4.47635 27.28C4.99208 27.7957 5.69155 28.0854 6.4209 28.0854H33.9209C34.6502 28.0854 35.3497 27.7957 35.8654 27.28C36.3812 26.7643 36.6709 26.0648 36.6709 25.3354V9.93645ZM33.9209 3.08545H6.4209C5.69155 3.08545 4.99208 3.37518 4.47635 3.89091C3.96063 4.40663 3.6709 5.1061 3.6709 5.83545V7.08445L20.1709 16.1584L36.6709 7.08345V5.83545C36.6709 5.1061 36.3812 4.40663 35.8654 3.89091C35.3497 3.37518 34.6502 3.08545 33.9209 3.08545Z" fill="#F8F8F8" stroke="white"/>
</svg>
