<svg width="47" height="46" viewBox="0 0 47 46" fill="none" xmlns="http://www.w3.org/2000/svg">
<path fill-rule="evenodd" clip-rule="evenodd" d="M23.5852 2.61661C11.9166 2.61661 2.46993 12.0151 2.46993 23.5893C2.46993 32.0879 7.56328 39.4012 14.894 42.6908C15.661 43.0357 16.4106 42.8989 16.9965 42.4595C17.3205 42.2072 17.5816 41.8833 17.7595 41.5132C17.9374 41.1431 18.0271 40.7368 18.0217 40.3262V39.2278L15.4066 38.8732C15.3872 38.8706 15.368 38.8674 15.3488 38.8636C13.9073 38.5822 12.9341 38.0754 12.2211 37.345C11.6218 36.7303 11.2556 35.9941 10.9453 35.3697L10.8374 35.152C10.5507 34.5538 10.2375 33.9687 9.89893 33.3983C9.63877 32.9859 9.43642 32.7739 9.236 32.6409C8.72725 32.3037 8.23776 31.7313 8.23776 31.0164C8.23602 30.8106 8.28008 30.607 8.36674 30.4204C8.4534 30.2337 8.58049 30.0687 8.73881 29.9372C9.03762 29.7006 9.41002 29.5765 9.79101 29.5865C10.2188 29.5865 10.6216 29.7175 10.9569 29.8678C11.2999 30.022 11.641 30.2263 11.959 30.4382C12.7337 30.9547 13.4968 31.5656 14.1424 32.3191C14.815 33.1015 15.291 33.5987 16.0079 33.7008C16.5976 33.7856 17.1988 33.7876 17.6671 33.7664C17.7322 33.3956 17.8395 33.0335 17.987 32.6872C17.4151 32.5537 16.8509 32.389 16.2969 32.1938C15.0366 31.7468 13.6317 31.0511 12.6875 29.9969C11.6507 28.8368 11.0089 27.802 10.6505 26.5917C10.3017 25.4124 10.2439 24.1347 10.2439 22.5622C10.2439 20.1533 11.2864 18.124 12.0689 17.0468C11.7682 16.1037 11.5522 15.1356 11.4233 14.1542C11.3379 13.5353 11.3385 12.9075 11.4252 12.2888C11.5216 11.7241 11.7624 11.0304 12.3965 10.6122C13.0074 10.2056 13.7242 10.2229 14.2831 10.327C14.8632 10.4368 15.4663 10.6777 16.0213 10.9533C16.9252 11.4004 17.8232 11.9978 18.4958 12.5046C19.6559 12.1635 21.7082 11.7241 23.564 11.6836H23.6064C25.4642 11.7241 27.424 12.1635 28.5552 12.5027C29.2297 11.9978 30.1258 11.3984 31.0277 10.9533C31.5827 10.6777 32.184 10.4368 32.766 10.327C33.3248 10.2229 34.0417 10.2056 34.6545 10.6102C35.2866 11.0304 35.5294 11.7241 35.6239 12.2888C35.7222 12.8765 35.699 13.5337 35.6239 14.1542C35.4955 15.1356 35.2801 16.1036 34.9802 17.0468C35.7626 18.126 36.8052 20.1552 36.8052 22.5622C36.8052 24.1347 36.7474 25.4124 36.4005 26.5898C36.0401 27.8039 35.3984 28.8368 34.3616 29.9969C33.4173 31.0511 32.0125 31.7468 30.7521 32.1938C30.0831 32.429 29.3995 32.6202 28.7056 32.7662C28.9426 33.4831 29.0274 34.0631 29.0274 34.3965V40.3513C29.0274 41.257 29.4494 42.0298 30.0488 42.4807C30.6307 42.922 31.3785 43.0589 32.1454 42.7236C39.5455 39.4629 44.6986 32.1302 44.6986 23.5874C44.6986 12.0151 35.2558 2.61661 23.5852 2.61661ZM18.7212 35.6954C18.2202 35.7667 18.7193 35.6954 18.7193 35.6954H18.7135L18.6981 35.6992L18.6422 35.707C18.356 35.7406 18.0687 35.7644 17.7808 35.7783C17.0949 35.814 16.4072 35.7863 15.7265 35.6954C14.2022 35.4796 13.2752 34.4004 12.6759 33.6989L12.6181 33.6334C12.4221 33.4061 12.2116 33.1917 11.9879 32.9917C12.1864 33.3578 12.3926 33.7664 12.6142 34.2057L12.6335 34.2443L12.7318 34.4447C13.069 35.1153 13.2906 35.5624 13.6587 35.9363C14.0172 36.3024 14.576 36.657 15.7053 36.8806L19.1625 37.3489C19.404 37.3815 19.6254 37.5007 19.7856 37.6843C19.9458 37.8679 20.0339 38.1034 20.0336 38.3471V40.3262C20.0336 41.8679 19.3109 43.2419 18.2028 44.0745C17.6211 44.519 16.929 44.7963 16.2012 44.8764C15.4734 44.9566 14.7376 44.8365 14.073 44.5293C6.05242 40.9313 0.459961 32.9204 0.459961 23.5893C0.459961 10.8858 10.822 0.602783 23.5852 0.602783C36.3485 0.602783 46.7105 10.8858 46.7105 23.5893C46.7105 32.9685 41.0468 41.0007 32.9568 44.5678C32.2917 44.8692 31.5571 44.9842 30.8317 44.9003C30.1063 44.8165 29.4173 44.537 28.8385 44.0918C28.2662 43.6512 27.8038 43.084 27.4875 42.4347C27.1712 41.7854 27.0096 41.0716 27.0155 40.3494V34.3946C27.0155 34.2597 26.9211 33.4811 26.395 32.4347C26.3223 32.2896 26.2858 32.1292 26.2883 31.9669C26.2909 31.8047 26.3325 31.6455 26.4096 31.5027C26.4867 31.36 26.5971 31.2379 26.7315 31.1469C26.8658 31.0558 27.0201 30.9985 27.1812 30.9798C28.1692 30.8559 29.1409 30.6259 30.0796 30.2937C31.2243 29.889 32.2514 29.334 32.8623 28.6518C33.77 27.6382 34.2229 26.8596 34.4715 26.0175C34.7297 25.1445 34.7952 24.1289 34.7952 22.5622C34.7952 20.3633 33.639 18.5152 33.1071 17.9198C32.9863 17.7852 32.904 17.6206 32.8688 17.4433C32.8335 17.266 32.8466 17.0824 32.9067 16.9119C33.2492 15.941 33.4914 14.9375 33.6293 13.9172C33.691 13.3872 33.6948 12.944 33.6409 12.6241C33.6288 12.5071 33.5934 12.3938 33.5368 12.2907C33.4041 12.2677 33.2681 12.2736 33.1379 12.308C32.8103 12.3697 32.3921 12.5239 31.918 12.759C30.9738 13.2253 29.9909 13.9152 29.382 14.4086C29.2477 14.5175 29.0875 14.5899 28.9169 14.6186C28.7464 14.6473 28.5713 14.6314 28.4088 14.5724C26.8485 14.062 25.2255 13.7682 23.5852 13.6994C21.6446 13.7457 19.4053 14.2968 18.6403 14.5724C18.4777 14.6314 18.3027 14.6473 18.1321 14.6186C17.9616 14.5899 17.8014 14.5175 17.6671 14.4086C16.8796 13.7746 16.0299 13.2219 15.131 12.759C14.7451 12.5563 14.3343 12.4047 13.9092 12.308C13.7797 12.2739 13.6443 12.268 13.5123 12.2907C13.4556 12.3937 13.4202 12.5071 13.4082 12.6241C13.3542 12.944 13.3581 13.3872 13.4198 13.9172C13.5586 14.9373 13.8008 15.9407 14.1424 16.9119C14.2638 17.2588 14.1887 17.6442 13.942 17.9198C13.4101 18.5152 12.2539 20.3633 12.2539 22.5622C12.2539 24.127 12.3194 25.1445 12.5776 26.0175C12.8281 26.8596 13.2791 27.6362 14.1848 28.6518C14.7976 29.334 15.8229 29.889 16.9695 30.2937C17.9075 30.6257 18.8786 30.8557 19.8659 30.9798C20.069 31.0016 20.2607 31.0847 20.4155 31.2181C20.5702 31.3515 20.6806 31.5288 20.7321 31.7266C20.7836 31.9243 20.7736 32.1329 20.7036 32.3249C20.6335 32.5168 20.5067 32.6828 20.34 32.8009C20.022 33.0283 19.812 33.4368 19.6944 33.909C19.6337 34.1521 19.5976 34.4006 19.5865 34.6509V34.6875C19.5889 34.9319 19.5026 35.1688 19.3434 35.3542C19.1842 35.5396 18.9631 35.6608 18.7212 35.6954Z" fill="#F8F8F8" stroke="white" stroke-width="0.581301"/>
</svg>
