<svg width="42" height="42" viewBox="0 0 42 42" fill="none" xmlns="http://www.w3.org/2000/svg">
<path fill-rule="evenodd" clip-rule="evenodd" d="M21.0003 2.60717C10.9637 2.60717 2.83823 10.6912 2.83823 20.6466C2.83823 27.9566 7.21922 34.2471 13.5247 37.0766C14.1844 37.3733 14.8292 37.2556 15.3331 36.8777C15.6118 36.6607 15.8364 36.3821 15.9894 36.0637C16.1424 35.7454 16.2196 35.3959 16.2149 35.0427V34.0979L13.9656 33.7929C13.9489 33.7907 13.9323 33.7879 13.9158 33.7846C12.676 33.5426 11.8389 33.1067 11.2256 32.4784C10.7101 31.9497 10.3951 31.3165 10.1283 30.7794L10.0354 30.5921C9.78879 30.0776 9.51945 29.5743 9.22821 29.0837C9.00443 28.729 8.83039 28.5467 8.658 28.4323C8.2204 28.1422 7.79937 27.6499 7.79937 27.0349C7.79788 26.8579 7.83577 26.6828 7.91031 26.5223C7.98485 26.3617 8.09417 26.2198 8.23034 26.1067C8.48736 25.9032 8.80768 25.7964 9.13538 25.805C9.50337 25.805 9.8498 25.9177 10.1382 26.047C10.4333 26.1796 10.7267 26.3553 11.0002 26.5377C11.6665 26.9819 12.3229 27.5074 12.8782 28.1555C13.4567 28.8284 13.8661 29.2561 14.4827 29.344C14.99 29.4169 15.5071 29.4185 15.9099 29.4003C15.9659 29.0814 16.0582 28.77 16.1851 28.4721C15.6931 28.3573 15.2078 28.2156 14.7314 28.0477C13.6473 27.6632 12.4389 27.0648 11.6267 26.1581C10.7349 25.1602 10.183 24.2701 9.87466 23.2291C9.57464 22.2147 9.52491 21.1157 9.52491 19.7631C9.52491 17.6912 10.4217 15.9457 11.0946 15.0191C10.8361 14.2079 10.6503 13.3753 10.5394 12.5311C10.4659 11.9987 10.4665 11.4588 10.541 10.9266C10.6239 10.4409 10.8311 9.84417 11.3764 9.48448C11.9019 9.13473 12.5185 9.14965 12.9992 9.23915C13.4981 9.33364 14.017 9.54083 14.4943 9.77787C15.2717 10.1624 16.0442 10.6763 16.6227 11.1122C17.6205 10.8188 19.3859 10.4409 20.9821 10.4061H21.0186C22.6165 10.4409 24.3023 10.8188 25.2753 11.1106C25.8554 10.6763 26.6262 10.1608 27.4019 9.77787C27.8793 9.54083 28.3965 9.33364 28.8971 9.23915C29.3778 9.14965 29.9944 9.13473 30.5215 9.48282C31.0652 9.84417 31.274 10.4409 31.3553 10.9266C31.4398 11.4321 31.4199 11.9974 31.3553 12.5311C31.2448 13.3752 31.0596 14.2079 30.8016 15.0191C31.4746 15.9474 32.3714 17.6928 32.3714 19.7631C32.3714 21.1157 32.3216 22.2147 32.0233 23.2275C31.7133 24.2718 31.1613 25.1602 30.2695 26.1581C29.4573 27.0648 28.249 27.6632 27.1649 28.0477C26.5895 28.25 26.0014 28.4144 25.4045 28.54C25.6084 29.1567 25.6814 29.6556 25.6814 29.9423V35.0643C25.6814 35.8433 26.0444 36.508 26.5599 36.8959C27.0605 37.2755 27.7036 37.3932 28.3633 37.1048C34.7284 34.3001 39.1608 27.993 39.1608 20.645C39.1608 10.6912 31.0387 2.60717 21.0003 2.60717ZM16.8166 31.0596C16.3856 31.1209 16.815 31.0596 16.815 31.0596H16.81L16.7967 31.0629L16.7487 31.0695C16.5025 31.0984 16.2553 31.1189 16.0077 31.1308C15.4178 31.1616 14.8263 31.1377 14.2407 31.0596C12.9296 30.8739 12.1323 29.9457 11.6168 29.3423L11.5671 29.2859C11.3985 29.0904 11.2175 28.906 11.025 28.734C11.1958 29.0489 11.3731 29.4003 11.5637 29.7782L11.5803 29.8114L11.6649 29.9838C11.9549 30.5606 12.1456 30.9452 12.4621 31.2668C12.7705 31.5817 13.2512 31.8867 14.2225 32.079L17.1962 32.4818C17.4039 32.5099 17.5943 32.6124 17.7321 32.7703C17.8699 32.9282 17.9457 33.1308 17.9454 33.3404V35.0427C17.9454 36.3688 17.3238 37.5506 16.3707 38.2667C15.8703 38.6491 15.275 38.8876 14.6491 38.9565C14.0231 39.0255 13.3901 38.9222 12.8185 38.6579C5.91968 35.5632 1.10938 28.6726 1.10938 20.6466C1.10938 9.71985 10.0222 0.875 21.0003 0.875C31.9785 0.875 40.8913 9.71985 40.8913 20.6466C40.8913 28.7141 36.0197 35.6229 29.0612 38.6911C28.4891 38.9503 27.8573 39.0492 27.2333 38.9771C26.6094 38.905 26.0168 38.6646 25.5189 38.2816C25.0267 37.9027 24.6289 37.4148 24.3568 36.8563C24.0848 36.2978 23.9458 35.6838 23.9508 35.0626V29.9407C23.9508 29.8247 23.8696 29.155 23.4171 28.2549C23.3546 28.1301 23.3232 27.9921 23.3254 27.8526C23.3276 27.713 23.3633 27.576 23.4297 27.4533C23.496 27.3305 23.591 27.2255 23.7065 27.1472C23.8221 27.0689 23.9548 27.0196 24.0934 27.0035C24.9432 26.8969 25.779 26.6991 26.5864 26.4134C27.571 26.0653 28.4545 25.5879 28.9799 25.0011C29.7607 24.1292 30.1502 23.4595 30.364 22.7352C30.5861 21.9843 30.6425 21.1108 30.6425 19.7631C30.6425 17.8718 29.648 16.2822 29.1905 15.77C29.0866 15.6543 29.0158 15.5127 28.9855 15.3602C28.9552 15.2077 28.9664 15.0498 29.0181 14.9031C29.3127 14.068 29.521 13.2048 29.6397 12.3272C29.6927 11.8714 29.696 11.4901 29.6496 11.215C29.6392 11.1144 29.6088 11.0169 29.5601 10.9282C29.446 10.9085 29.329 10.9136 29.217 10.9431C28.9352 10.9962 28.5755 11.1288 28.1677 11.331C27.3555 11.7322 26.5102 12.3256 25.9864 12.7499C25.8708 12.8436 25.733 12.9059 25.5864 12.9305C25.4397 12.9552 25.2891 12.9415 25.1493 12.8908C23.8072 12.4518 22.4112 12.1991 21.0003 12.1399C19.3312 12.1797 17.4051 12.6538 16.747 12.8908C16.6072 12.9415 16.4566 12.9552 16.3099 12.9305C16.1632 12.9059 16.0254 12.8436 15.9099 12.7499C15.2325 12.2046 14.5017 11.7292 13.7285 11.331C13.3966 11.1567 13.0433 11.0263 12.6776 10.9431C12.5662 10.9138 12.4497 10.9087 12.3362 10.9282C12.2874 11.0169 12.257 11.1144 12.2467 11.215C12.2003 11.4901 12.2036 11.8714 12.2566 12.3272C12.3761 13.2047 12.5843 14.0677 12.8782 14.9031C12.9826 15.2015 12.918 15.533 12.7058 15.77C12.2483 16.2822 11.2538 17.8718 11.2538 19.7631C11.2538 21.1091 11.3101 21.9843 11.5322 22.7352C11.7477 23.4595 12.1356 24.1276 12.9147 25.0011C13.4418 25.5879 14.3236 26.0653 15.3099 26.4134C16.1167 26.6989 16.952 26.8967 17.8012 27.0035C17.9759 27.0222 18.1408 27.0937 18.2739 27.2085C18.407 27.3232 18.502 27.4757 18.5462 27.6458C18.5905 27.8158 18.5819 27.9953 18.5217 28.1604C18.4615 28.3255 18.3524 28.4683 18.209 28.5699C17.9355 28.7655 17.7548 29.1169 17.6537 29.523C17.6015 29.7321 17.5704 29.9459 17.5609 30.1611V30.1926C17.563 30.4028 17.4887 30.6066 17.3518 30.7661C17.2149 30.9255 17.0247 31.0298 16.8166 31.0596Z" fill="#F8F8F8" stroke="white" stroke-width="0.5"/>
</svg>
