<svg width="48" height="46" viewBox="0 0 48 46" fill="none" xmlns="http://www.w3.org/2000/svg">
<path fill-rule="evenodd" clip-rule="evenodd" d="M24.4143 3.03116C12.7457 3.03116 3.29903 12.4297 3.29903 24.0039C3.29903 32.5024 8.39238 39.8158 15.7231 43.1053C16.4901 43.4503 17.2397 43.3135 17.8256 42.8741C18.1496 42.6218 18.4107 42.2979 18.5886 41.9278C18.7665 41.5577 18.8562 41.1514 18.8508 40.7408V39.6423L16.2357 39.2877C16.2163 39.2851 16.1971 39.2819 16.1779 39.2781C14.7364 38.9968 13.7632 38.4899 13.0502 37.7595C12.4509 37.1448 12.0847 36.4086 11.7744 35.7843L11.6665 35.5665C11.3798 34.9684 11.0666 34.3832 10.728 33.8128C10.4679 33.4004 10.2655 33.1885 10.0651 33.0555C9.55635 32.7182 9.06686 32.1459 9.06686 31.4309C9.06513 31.2251 9.10918 31.0216 9.19584 30.8349C9.2825 30.6483 9.40959 30.4832 9.56791 30.3518C9.86672 30.1152 10.2391 29.991 10.6201 30.001C11.0479 30.001 11.4507 30.1321 11.786 30.2824C12.129 30.4365 12.4701 30.6408 12.7881 30.8528C13.5628 31.3693 14.3259 31.9802 14.9715 32.7337C15.6441 33.5161 16.1201 34.0133 16.837 34.1154C17.4267 34.2002 18.0279 34.2021 18.4962 34.1809C18.5613 33.8102 18.6686 33.4481 18.8161 33.1017C18.2442 32.9683 17.68 32.8036 17.126 32.6084C15.8657 32.1613 14.4608 31.4656 13.5166 30.4115C12.4798 29.2514 11.838 28.2165 11.4796 27.0063C11.1308 25.8269 11.073 24.5492 11.073 22.9767C11.073 20.5678 12.1155 18.5386 12.898 17.4613C12.5974 16.5182 12.3813 15.5502 12.2524 14.5687C12.167 13.9498 12.1676 13.3221 12.2543 12.7033C12.3507 12.1387 12.5915 11.4449 13.2256 11.0267C13.8365 10.6201 14.5533 10.6375 15.1122 10.7415C15.6923 10.8514 16.2954 11.0922 16.8504 11.3678C17.7543 11.8149 18.6523 12.4123 19.3249 12.9191C20.485 12.578 22.5373 12.1387 24.3931 12.0982H24.4355C26.2933 12.1387 28.2531 12.578 29.3843 12.9172C30.0588 12.4123 30.9549 11.813 31.8568 11.3678C32.4118 11.0922 33.0131 10.8514 33.5951 10.7415C34.1539 10.6375 34.8708 10.6201 35.4836 11.0248C36.1157 11.4449 36.3585 12.1387 36.453 12.7033C36.5513 13.2911 36.5281 13.9482 36.453 14.5687C36.3246 15.5501 36.1092 16.5181 35.8093 17.4613C36.5917 18.5405 37.6343 20.5698 37.6343 22.9767C37.6343 24.5492 37.5765 25.8269 37.2296 27.0044C36.8692 28.2184 36.2275 29.2514 35.1907 30.4115C34.2464 31.4656 32.8416 32.1613 31.5812 32.6084C30.9122 32.8435 30.2286 33.0347 29.5347 33.1807C29.7717 33.8976 29.8565 34.4777 29.8565 34.8111V40.7658C29.8565 41.6716 30.2785 42.4443 30.8779 42.8953C31.4598 43.3366 32.2076 43.4734 32.9745 43.1381C40.3746 39.8774 45.5277 32.5448 45.5277 24.0019C45.5277 12.4297 36.0849 3.03116 24.4143 3.03116ZM19.5503 36.1099C19.0493 36.1812 19.5484 36.1099 19.5484 36.1099H19.5426L19.5272 36.1138L19.4713 36.1215C19.1851 36.1551 18.8978 36.1789 18.6099 36.1928C17.924 36.2286 17.2363 36.2008 16.5556 36.1099C15.0313 35.8941 14.1043 34.8149 13.505 34.1135L13.4472 34.0479C13.2512 33.8206 13.0407 33.6063 12.817 33.4062C13.0155 33.7724 13.2217 34.1809 13.4433 34.6203L13.4626 34.6588L13.5609 34.8593C13.8981 35.5299 14.1197 35.977 14.4878 36.3508C14.8463 36.717 15.4051 37.0716 16.5344 37.2951L19.9916 37.7634C20.2331 37.7961 20.4545 37.9153 20.6147 38.0989C20.7749 38.2825 20.863 38.518 20.8627 38.7616V40.7408C20.8627 42.2825 20.14 43.6565 19.0319 44.489C18.4502 44.9335 17.7581 45.2108 17.0303 45.291C16.3025 45.3711 15.5667 45.2511 14.9021 44.9438C6.88153 41.3459 1.28906 33.3349 1.28906 24.0039C1.28906 11.3004 11.6511 1.01733 24.4143 1.01733C37.1776 1.01733 47.5396 11.3004 47.5396 24.0039C47.5396 33.3831 41.8759 41.4153 33.7859 44.9823C33.1208 45.2838 32.3862 45.3987 31.6608 45.3149C30.9354 45.231 30.2464 44.9516 29.6676 44.5063C29.0953 44.0658 28.6329 43.4986 28.3166 42.8492C28.0003 42.1999 27.8387 41.4861 27.8446 40.7639V34.8091C27.8446 34.6743 27.7502 33.8957 27.2241 32.8493C27.1514 32.7042 27.1149 32.5437 27.1174 32.3815C27.12 32.2192 27.1616 32.06 27.2387 31.9173C27.3158 31.7745 27.4262 31.6525 27.5606 31.5614C27.6949 31.4704 27.8492 31.4131 28.0103 31.3943C28.9983 31.2705 29.97 31.0405 30.9087 30.7083C32.0534 30.3036 33.0805 29.7486 33.6914 29.0664C34.5991 28.0527 35.052 27.2742 35.3006 26.432C35.5588 25.559 35.6243 24.5435 35.6243 22.9767C35.6243 20.7779 34.4681 18.9298 33.9362 18.3343C33.8154 18.1997 33.7331 18.0352 33.6979 17.8578C33.6626 17.6805 33.6757 17.497 33.7358 17.3264C34.0783 16.3555 34.3205 15.352 34.4584 14.3317C34.5201 13.8018 34.5239 13.3585 34.47 13.0386C34.4579 12.9217 34.4225 12.8083 34.3659 12.7052C34.2332 12.6823 34.0972 12.6882 33.967 12.7226C33.6394 12.7842 33.2212 12.9384 32.7471 13.1735C31.8029 13.6399 30.82 14.3298 30.2111 14.8231C30.0768 14.9321 29.9166 15.0044 29.746 15.0331C29.5755 15.0618 29.4004 15.0459 29.2379 14.9869C27.6776 14.4765 26.0546 14.1828 24.4143 14.114C22.4737 14.1602 20.2344 14.7114 19.4694 14.9869C19.3068 15.0459 19.1318 15.0618 18.9612 15.0331C18.7907 15.0044 18.6305 14.9321 18.4962 14.8231C17.7087 14.1891 16.859 13.6364 15.9601 13.1735C15.5742 12.9708 15.1634 12.8192 14.7383 12.7226C14.6088 12.6885 14.4734 12.6826 14.3414 12.7052C14.2847 12.8083 14.2493 12.9217 14.2373 13.0386C14.1833 13.3585 14.1872 13.8018 14.2489 14.3317C14.3877 15.3518 14.6299 16.3552 14.9715 17.3264C15.0929 17.6733 15.0178 18.0587 14.7711 18.3343C14.2392 18.9298 13.083 20.7779 13.083 22.9767C13.083 24.5415 13.1485 25.559 13.4067 26.432C13.6572 27.2742 14.1082 28.0508 15.0139 29.0664C15.6267 29.7486 16.652 30.3036 17.7986 30.7083C18.7366 31.0402 19.7077 31.2702 20.695 31.3943C20.8982 31.4161 21.0898 31.4992 21.2446 31.6326C21.3993 31.766 21.5097 31.9434 21.5612 32.1411C21.6127 32.3388 21.6027 32.5475 21.5327 32.7394C21.4626 32.9313 21.3358 33.0974 21.1691 33.2154C20.8511 33.4428 20.6411 33.8514 20.5235 34.3235C20.4628 34.5666 20.4267 34.8152 20.4156 35.0655V35.1021C20.4181 35.3464 20.3317 35.5833 20.1725 35.7687C20.0133 35.9541 19.7922 36.0754 19.5503 36.1099V36.1099Z" fill="#F8F8F8" stroke="white" stroke-width="0.581301"/>
</svg>
