<svg width="633" height="512" viewBox="0 0 633 512" fill="none" xmlns="http://www.w3.org/2000/svg">
<path d="M41.6023 412.859C64.5786 412.859 83.2046 394.188 83.2046 371.155C83.2046 348.123 64.5786 329.452 41.6023 329.452C18.626 329.452 0 348.123 0 371.155C0 394.188 18.626 412.859 41.6023 412.859Z" fill="url(#paint0_linear_147_3)"/>
<path d="M95.4503 93.7588C104.969 93.7588 112.686 86.0235 112.686 76.4814C112.686 66.9394 104.969 59.204 95.4503 59.204C85.9314 59.204 78.2148 66.9394 78.2148 76.4814C78.2148 86.0235 85.9314 93.7588 95.4503 93.7588Z" fill="url(#paint1_linear_147_3)"/>
<path d="M610.949 266.662C623.043 254.539 623.043 234.884 610.949 222.761C598.856 210.639 579.248 210.639 567.155 222.761C555.062 234.884 555.062 254.539 567.155 266.662C579.248 278.785 598.856 278.785 610.949 266.662Z" fill="url(#paint2_linear_147_3)"/>
<path opacity="0.8" d="M596.96 370.464C584.573 372.894 571.018 369.009 566.878 361.807C562.737 354.605 569.39 346.8 581.83 344.37C594.27 341.94 607.772 345.825 611.913 353.044C616.054 360.264 609.418 368.016 596.96 370.464Z" fill="#0C0F38"/>
<path opacity="0.8" d="M42.0976 512C60.3731 512 75.1883 503.423 75.1883 492.842C75.1883 482.262 60.3731 473.685 42.0976 473.685C23.8221 473.685 9.00684 482.262 9.00684 492.842C9.00684 503.423 23.8221 512 42.0976 512Z" fill="#0C0F38"/>
<path opacity="0.8" d="M95.4499 146.655C102.008 146.655 107.324 143.574 107.324 139.773C107.324 135.972 102.008 132.89 95.4499 132.89C88.8922 132.89 83.5762 135.972 83.5762 139.773C83.5762 143.574 88.8922 146.655 95.4499 146.655Z" fill="#0C0F38"/>
<g style="mix-blend-mode:lighten" opacity="0.8">
<path d="M213.674 4.62228C213.67 5.4951 213.409 6.3473 212.923 7.07132C212.436 7.79535 211.747 8.35871 210.941 8.6903C210.136 9.02188 209.251 9.10684 208.397 8.93441C207.544 8.76199 206.76 8.33992 206.146 7.7215C205.531 7.10308 205.113 6.31604 204.945 5.45973C204.776 4.60342 204.864 3.71623 205.198 2.91018C205.532 2.10413 206.097 1.41534 206.821 0.930787C207.546 0.44623 208.397 0.187629 209.268 0.187622C209.848 0.187617 210.422 0.302447 210.958 0.525526C211.494 0.748606 211.98 1.07554 212.389 1.48757C212.799 1.8996 213.123 2.38861 213.343 2.92654C213.564 3.46448 213.676 4.04075 213.674 4.62228Z" fill="#D4088C"/>
</g>
<g style="mix-blend-mode:lighten" opacity="0.8">
<path d="M131.903 459.884C134.844 459.884 137.229 457.493 137.229 454.545C137.229 451.596 134.844 449.205 131.903 449.205C128.961 449.205 126.576 451.596 126.576 454.545C126.576 457.493 128.961 459.884 131.903 459.884Z" fill="#D4088C"/>
</g>
<g style="mix-blend-mode:lighten">
<path d="M100.918 430.934C100.922 431.479 100.764 432.012 100.465 432.467C100.165 432.921 99.7382 433.276 99.2373 433.487C98.7365 433.698 98.1844 433.755 97.6512 433.651C97.118 433.547 96.6276 433.286 96.2423 432.903C95.8569 432.519 95.5939 432.029 95.4866 431.495C95.3794 430.961 95.4326 430.408 95.6397 429.904C95.8468 429.401 96.1983 428.97 96.6497 428.667C97.1012 428.364 97.6322 428.203 98.1754 428.203C98.5347 428.2 98.891 428.269 99.2237 428.406C99.5563 428.542 99.8589 428.743 100.114 428.997C100.369 429.25 100.571 429.552 100.709 429.885C100.847 430.218 100.918 430.574 100.918 430.934Z" fill="#6EE8FC"/>
</g>
<g style="mix-blend-mode:lighten">
<path d="M565.586 329.665C565.586 330.226 565.42 330.775 565.109 331.242C564.798 331.708 564.356 332.072 563.839 332.287C563.321 332.502 562.752 332.558 562.203 332.448C561.654 332.339 561.149 332.069 560.753 331.672C560.357 331.275 560.087 330.769 559.978 330.218C559.869 329.668 559.925 329.097 560.139 328.579C560.354 328.06 560.717 327.617 561.182 327.305C561.648 326.993 562.195 326.827 562.755 326.827C563.128 326.824 563.497 326.896 563.841 327.038C564.186 327.18 564.499 327.389 564.762 327.653C565.026 327.917 565.234 328.23 565.376 328.576C565.517 328.921 565.589 329.291 565.586 329.665Z" fill="#6EE8FC"/>
</g>
<g style="mix-blend-mode:lighten">
<path d="M42.0802 138.176C42.0802 138.966 41.8467 139.737 41.4092 140.394C40.9717 141.05 40.3499 141.562 39.6223 141.864C38.8948 142.166 38.0943 142.245 37.3219 142.091C36.5496 141.937 35.8402 141.557 35.2833 140.999C34.7265 140.44 34.3473 139.729 34.1937 138.955C34.0401 138.181 34.1189 137.378 34.4203 136.649C34.7216 135.92 35.2319 135.296 35.8867 134.858C36.5414 134.419 37.3112 134.185 38.0987 134.185C39.1546 134.185 40.1674 134.606 40.9141 135.354C41.6607 136.103 42.0802 137.118 42.0802 138.176Z" fill="#6EE8FC"/>
</g>
<g style="mix-blend-mode:lighten">
<path d="M58.3067 129.343C58.3067 129.781 58.177 130.21 57.9339 130.574C57.6909 130.939 57.3454 131.223 56.9412 131.391C56.5371 131.559 56.0923 131.603 55.6632 131.517C55.2342 131.432 54.84 131.22 54.5307 130.91C54.2213 130.6 54.0107 130.205 53.9253 129.775C53.84 129.345 53.8838 128.899 54.0512 128.494C54.2186 128.089 54.5021 127.743 54.8659 127.499C55.2296 127.255 55.6573 127.125 56.0948 127.125C56.3859 127.123 56.6746 127.179 56.944 127.289C57.2134 127.4 57.4582 127.563 57.6641 127.769C57.87 127.976 58.0328 128.221 58.1431 128.491C58.2535 128.761 58.3091 129.051 58.3067 129.343Z" fill="#6EE8FC"/>
</g>
<g style="mix-blend-mode:lighten">
<path d="M437.93 6.82186C437.934 7.34184 437.783 7.85115 437.497 8.28521C437.212 8.71927 436.804 9.05852 436.326 9.25994C435.848 9.46137 435.32 9.51589 434.811 9.41661C434.302 9.31732 433.834 9.0687 433.466 8.70226C433.098 8.33581 432.847 7.86807 432.744 7.35833C432.642 6.84859 432.692 6.31982 432.89 5.83907C433.088 5.35832 433.423 4.94725 433.854 4.65799C434.286 4.36872 434.793 4.21429 435.311 4.21428C436.003 4.21426 436.666 4.48842 437.157 4.97693C437.648 5.46544 437.926 6.12866 437.93 6.82186Z" fill="#D4088C"/>
</g>
<path d="M55.2808 269.105L54.3252 265.682L61.8989 263.553L59.7754 255.961L63.1907 255.003L66.2697 266.019L55.2808 269.105Z" fill="#6EE1F8"/>
<path d="M48.5923 281.008L47.6367 277.584L55.2104 275.456L53.1047 267.863L56.5022 266.906L59.5812 277.921L48.5923 281.008Z" fill="#6EE1F8"/>
<path d="M55.6883 277.176L52.627 266.161L63.6159 263.074L64.5538 266.498L56.9801 268.626L59.1035 276.218L55.6883 277.176Z" fill="#6EE1F8"/>
<path d="M501.794 437.764L492.238 428.185L501.794 418.606L511.35 428.185L501.794 437.764ZM497.246 428.185L501.794 432.762L506.359 428.185L501.794 423.679L497.246 428.185Z" fill="#6EE1F8"/>
<path d="M524.576 88.0374L522.073 90.546L532.309 100.806L534.811 98.2976L524.576 88.0374Z" fill="#D4088C"/>
<path d="M532.309 88.0551L522.073 98.3154L524.576 100.824L534.811 90.5637L532.309 88.0551Z" fill="#D4088C"/>
<path d="M305.338 499.53C298.382 499.721 291.493 498.127 285.324 494.9L122.525 400.619C117.216 397.533 114.261 393.222 114.261 388.486C114.261 382.845 118.455 377.169 125.763 372.947L282.121 282.48C295.729 274.604 316.38 273.77 328.13 280.6L490.929 374.845C496.238 377.932 499.193 382.242 499.193 386.978C499.193 392.637 494.999 398.295 487.691 402.535L331.332 493.037C323.357 497.377 314.412 499.611 305.338 499.53ZM308.045 277.797C299.273 277.72 290.627 279.881 282.917 284.076L126.559 374.543C119.799 378.446 115.942 383.555 115.942 388.557C115.942 392.637 118.561 396.397 123.321 399.2L286.12 493.463C297.428 500.009 317.3 499.175 330.359 491.583L486.717 401.116C493.477 397.213 497.335 392.105 497.335 387.102C497.335 383.022 494.716 379.262 489.956 376.459L327.156 282.214C321.271 279.112 314.693 277.567 308.045 277.726V277.797Z" fill="url(#paint3_linear_147_3)"/>
<path opacity="0.8" d="M291.198 466.359L170.868 396.717C162.303 391.768 163.383 383.111 173.257 377.399L288.809 310.525C298.683 304.813 313.583 304.192 322.183 309.141L442.513 378.783C451.078 383.732 449.998 392.388 440.124 398.1L324.59 464.975C314.698 470.687 299.763 471.308 291.198 466.359Z" fill="#0C0F38"/>
<path d="M456.723 174.594H393.496L323.103 133.795C314.043 128.473 298.206 129.218 287.712 135.267L219.85 174.594H156.677V352.157C156.429 355.705 158.446 359.129 162.746 361.647L290.26 435.44C299.321 440.762 315.158 440.034 325.652 433.968L448.123 363.12C453.555 359.98 456.457 356.024 456.74 352.157L456.723 174.594Z" fill="url(#paint4_linear_147_3)"/>
<path d="M172.691 174.594H156.765V352.157C156.688 353.482 156.909 354.808 157.411 356.036C157.914 357.264 158.684 358.363 159.667 359.253C158.389 357.588 157.76 355.513 157.897 353.417V175.835H174.089C173.54 175.339 173.116 174.984 172.691 174.594Z" fill="#D4088C"/>
<path d="M436.497 174.594L436.125 175.658H455.59V353.222C455.27 355.928 454.019 358.437 452.051 360.317C454.605 358.318 456.276 355.395 456.705 352.175V174.594H436.497Z" fill="#6DE0F6"/>
<g style="mix-blend-mode:lighten" opacity="0.5">
<path d="M201.358 383.98V178.035H178.389V370.694L201.358 383.98Z" fill="#D4088C"/>
</g>
<g style="mix-blend-mode:lighten" opacity="0.3">
<path d="M215.444 392.14V191.871H209.18V388.504L215.444 392.14Z" fill="#D4088C"/>
</g>
<g style="mix-blend-mode:lighten" opacity="0.15">
<path d="M226.68 398.632V194.284H220.416V395.014L226.68 398.632Z" fill="#D4088C"/>
</g>
<path d="M290.279 257.894L162.764 184.084C153.704 178.762 154.837 169.68 165.312 163.614L287.73 92.7655C298.206 86.7166 314.044 86.0425 323.122 91.2932L450.636 165.086C459.696 170.407 458.564 179.507 448.088 185.556L325.67 256.511C315.176 262.471 299.339 263.127 290.279 257.894Z" fill="url(#paint5_linear_147_3)"/>
<path d="M291.676 257.894L164.268 184.084C155.19 178.762 156.34 169.68 166.798 163.614L289.234 92.7655C294.776 89.7264 300.952 88.0314 307.266 87.8164C300.468 87.8164 293.777 89.5175 287.801 92.7655L165.383 163.614C154.907 169.68 153.774 178.851 162.835 184.084L290.349 257.894C295.693 260.657 301.694 261.884 307.691 261.442C302.135 261.687 296.612 260.463 291.676 257.894Z" fill="#D4088C"/>
<path d="M450.618 165.086L323.104 91.2932C317.753 88.5311 311.746 87.3034 305.744 87.7455C311.205 87.5503 316.624 88.7723 321.475 91.2932L448.972 165.086C458.05 170.407 456.9 179.507 446.442 185.556L324.024 256.511C318.487 259.547 312.317 261.242 306.01 261.46C312.867 261.483 319.62 259.781 325.652 256.511L448.07 185.556C458.545 179.507 459.678 170.336 450.618 165.086Z" fill="#6DE0F6"/>
<path d="M294.472 236.608L199.535 181.618C192.793 177.698 193.643 170.975 201.429 166.363L292.579 113.626C300.365 109.103 312.168 108.624 318.91 112.526L413.846 167.516C420.588 171.419 419.739 178.159 411.953 182.753L320.803 235.508C313.017 240.014 301.249 240.51 294.472 236.608Z" fill="#6DE0F6"/>
<path d="M201.429 176.687L292.579 123.897C300.365 119.391 312.168 118.894 318.91 122.815L413.846 177.804C414.657 178.272 415.411 178.831 416.094 179.472C419.721 175.374 419.084 170.603 413.846 167.534L318.91 112.544C312.168 108.642 300.365 109.12 292.579 113.644L201.429 166.469C194.651 170.39 193.147 176.066 197.288 180.039C198.482 178.709 199.88 177.578 201.429 176.687Z" fill="#267FE5"/>
<path d="M329.28 270.489L437.223 207.942C437.761 207.551 438.201 207.04 438.508 206.449C438.816 205.858 438.981 205.203 438.992 204.537V202.763C438.992 201.432 438.178 200.829 437.223 201.397L329.28 263.943C328.74 264.337 328.299 264.851 327.992 265.446C327.685 266.04 327.52 266.698 327.51 267.367V269.141C327.492 270.453 328.306 271.127 329.28 270.489Z" fill="#6DE0F6"/>
<path d="M434.78 206.594C435.323 206.203 435.766 205.69 436.074 205.095C436.381 204.5 436.544 203.841 436.549 203.171V201.734L437.133 201.397C438.107 200.829 438.903 201.397 438.903 202.763V204.537C438.892 205.203 438.726 205.858 438.419 206.449C438.112 207.04 437.672 207.551 437.133 207.942L329.19 270.489C328.217 271.056 327.421 270.489 327.421 269.141V268.804L434.78 206.594Z" fill="#267FE5"/>
<path d="M329.28 289.522L437.223 226.976C437.762 226.582 438.203 226.068 438.511 225.474C438.818 224.879 438.983 224.222 438.992 223.552V221.778C438.992 220.466 438.178 219.863 437.223 220.43L329.28 282.959C328.743 283.356 328.304 283.871 327.997 284.464C327.69 285.058 327.524 285.714 327.51 286.383V288.156C327.492 289.487 328.306 290.09 329.28 289.522Z" fill="#6DE0F6"/>
<path d="M434.78 225.628C435.321 225.235 435.762 224.721 436.07 224.126C436.377 223.532 436.541 222.874 436.549 222.204V220.767L437.133 220.43C438.107 219.863 438.903 220.43 438.903 221.778V223.552C438.893 224.222 438.729 224.879 438.421 225.474C438.114 226.068 437.673 226.582 437.133 226.976L329.19 289.522C328.217 290.09 327.421 289.522 327.421 288.156V287.837L434.78 225.628Z" fill="#267FE5"/>
<path d="M329.28 308.538L437.223 246.009C437.761 245.615 438.202 245.1 438.509 244.506C438.816 243.912 438.981 243.255 438.992 242.586V240.812C438.992 239.499 438.178 238.878 437.223 239.464L329.28 301.992C328.741 302.387 328.301 302.902 327.994 303.496C327.687 304.09 327.521 304.747 327.51 305.416V307.19C327.492 308.503 328.306 309.123 329.28 308.538Z" fill="#6DE0F6"/>
<path d="M434.78 244.661C435.32 244.268 435.761 243.753 436.068 243.159C436.375 242.565 436.54 241.907 436.549 241.238V239.783L437.133 239.464C438.107 238.879 438.903 239.464 438.903 240.812V242.586C438.892 243.255 438.727 243.912 438.42 244.506C438.113 245.1 437.672 245.615 437.133 246.009L329.19 308.538C328.217 309.123 327.421 308.538 327.421 307.19V306.853L434.78 244.661Z" fill="#267FE5"/>
<path d="M329.28 327.572L437.223 265.043C437.759 264.646 438.198 264.131 438.505 263.538C438.812 262.944 438.979 262.288 438.992 261.619V259.846C438.992 258.515 438.178 257.912 437.223 258.48L329.28 321.026C328.74 321.42 328.299 321.934 327.992 322.528C327.685 323.123 327.52 323.78 327.51 324.45V326.223C327.492 327.536 328.306 328.139 329.28 327.572Z" fill="#6DE0F6"/>
<path d="M434.78 263.677C435.323 263.286 435.766 262.773 436.074 262.178C436.381 261.583 436.544 260.923 436.549 260.254V258.817L437.133 258.48C438.107 257.912 438.903 258.48 438.903 259.846V261.619C438.889 262.288 438.723 262.944 438.416 263.538C438.109 264.131 437.67 264.646 437.133 265.043L329.19 327.572C328.217 328.139 327.421 327.572 327.421 326.223V325.886L434.78 263.677Z" fill="#267FE5"/>
<path d="M329.28 346.605L437.223 284.059C437.762 283.665 438.203 283.151 438.511 282.556C438.818 281.962 438.983 281.304 438.992 280.635V278.861C438.992 277.549 438.178 276.946 437.223 277.513L329.28 340.06C328.741 340.451 328.301 340.962 327.994 341.553C327.687 342.144 327.521 342.799 327.51 343.465V345.239C327.492 346.57 328.306 347.173 329.28 346.605Z" fill="#6DE0F6"/>
<path d="M434.78 282.711C435.321 282.318 435.762 281.804 436.07 281.209C436.377 280.615 436.541 279.957 436.549 279.287V277.85L437.133 277.513C438.107 276.946 438.903 277.513 438.903 278.861V280.635C438.893 281.304 438.729 281.962 438.421 282.556C438.114 283.151 437.673 283.665 437.133 284.059L329.19 346.605C328.217 347.173 327.421 346.605 327.421 345.239V344.92L434.78 282.711Z" fill="#267FE5"/>
<path d="M329.28 365.639L437.223 303.092C437.761 302.698 438.202 302.183 438.509 301.589C438.816 300.995 438.981 300.338 438.992 299.669V297.895C438.992 296.582 438.178 295.979 437.223 296.547L329.28 359.075C328.743 359.472 328.304 359.987 327.997 360.581C327.69 361.174 327.524 361.831 327.51 362.499V364.273C327.492 365.603 328.306 366.206 329.28 365.639Z" fill="#6DE0F6"/>
<path d="M434.78 301.744C435.321 301.351 435.762 300.837 436.07 300.243C436.377 299.648 436.541 298.99 436.549 298.321V296.884L437.133 296.547C438.107 295.979 438.903 296.547 438.903 297.895V299.669C438.892 300.338 438.727 300.995 438.42 301.589C438.113 302.183 437.672 302.698 437.133 303.092L329.19 365.639C328.217 366.206 327.421 365.639 327.421 364.273V363.953L434.78 301.744Z" fill="#267FE5"/>
<path d="M329.28 384.654L437.223 322.126C437.761 321.731 438.202 321.217 438.509 320.623C438.816 320.029 438.981 319.371 438.992 318.702V316.928C438.992 315.598 438.178 314.995 437.223 315.563L329.28 378.109C328.741 378.504 328.301 379.018 327.994 379.612C327.687 380.206 327.521 380.864 327.51 381.532V383.306C327.492 384.654 328.306 385.222 329.28 384.654Z" fill="#6DE0F6"/>
<path d="M434.78 320.795C435.32 320.406 435.762 319.895 436.07 319.304C436.377 318.712 436.541 318.057 436.549 317.39V315.935L437.133 315.598C438.107 315.03 438.903 315.598 438.903 316.964V318.738C438.889 319.406 438.723 320.062 438.416 320.656C438.109 321.25 437.67 321.765 437.133 322.161L329.19 384.69C328.217 385.258 327.421 384.69 327.421 383.342V383.005L434.78 320.795Z" fill="#267FE5"/>
<path d="M329.28 403.688L437.223 341.142C437.761 340.751 438.201 340.239 438.508 339.648C438.816 339.057 438.981 338.402 438.992 337.736V335.962C438.992 334.632 438.178 334.028 437.223 334.596L329.28 397.142C328.74 397.536 328.299 398.051 327.992 398.645C327.685 399.239 327.52 399.897 327.51 400.566V402.34C327.492 403.653 328.306 404.256 329.28 403.688Z" fill="#6DE0F6"/>
<path d="M434.78 339.793C435.323 339.403 435.766 338.889 436.074 338.294C436.381 337.699 436.544 337.04 436.549 336.37V334.986L437.133 334.649C438.107 334.082 438.903 334.649 438.903 336.015V337.789C438.892 338.455 438.726 339.11 438.419 339.701C438.112 340.292 437.672 340.804 437.133 341.195L329.19 403.741C328.217 404.309 327.421 403.741 327.421 402.393V402.056L434.78 339.793Z" fill="#267FE5"/>
<path d="M329.28 422.722L437.223 360.175C437.762 359.781 438.203 359.267 438.511 358.673C438.818 358.079 438.983 357.421 438.992 356.752V354.978C438.992 353.665 438.178 353.062 437.223 353.63L329.28 416.158C328.743 416.555 328.304 417.07 327.997 417.663C327.69 418.257 327.524 418.913 327.51 419.582V421.356C327.492 422.686 328.306 423.289 329.28 422.722Z" fill="#6DE0F6"/>
<path d="M434.78 358.827C435.321 358.434 435.762 357.92 436.07 357.326C436.377 356.731 436.541 356.073 436.549 355.403V353.967L437.133 353.63C438.107 353.062 438.903 353.63 438.903 354.978V356.752C438.893 357.421 438.729 358.079 438.421 358.673C438.114 359.267 437.673 359.781 437.133 360.175L329.19 422.722C328.217 423.289 327.421 422.722 327.421 421.356V421.036L434.78 358.827Z" fill="#267FE5"/>
<path d="M306.7 276.502C308.303 276.502 309.602 275.2 309.602 273.593C309.602 271.986 308.303 270.684 306.7 270.684C305.097 270.684 303.798 271.986 303.798 273.593C303.798 275.2 305.097 276.502 306.7 276.502Z" fill="#6DE0F6"/>
<path d="M306.7 275.402C306.026 275.402 305.372 275.167 304.852 274.736C304.333 274.305 303.978 273.707 303.851 273.043C303.834 273.22 303.834 273.398 303.851 273.575C303.82 273.975 303.871 274.377 304.003 274.756C304.134 275.135 304.342 275.483 304.614 275.777C304.885 276.072 305.215 276.307 305.581 276.468C305.948 276.628 306.344 276.711 306.744 276.711C307.144 276.711 307.54 276.628 307.907 276.468C308.274 276.307 308.603 276.072 308.875 275.777C309.147 275.483 309.354 275.135 309.486 274.756C309.617 274.377 309.669 273.975 309.637 273.575C309.655 273.398 309.655 273.22 309.637 273.043C309.507 273.722 309.14 274.332 308.602 274.765C308.064 275.197 307.389 275.423 306.7 275.402Z" fill="#267FE5"/>
<path d="M306.7 295.536C308.303 295.536 309.602 294.233 309.602 292.626C309.602 291.02 308.303 289.717 306.7 289.717C305.097 289.717 303.798 291.02 303.798 292.626C303.798 294.233 305.097 295.536 306.7 295.536Z" fill="#6DE0F6"/>
<path d="M306.7 294.418C306.027 294.422 305.374 294.19 304.854 293.763C304.333 293.335 303.979 292.739 303.851 292.077C303.832 292.253 303.832 292.432 303.851 292.609C303.819 293.009 303.871 293.411 304.002 293.79C304.134 294.169 304.342 294.516 304.613 294.811C304.885 295.105 305.215 295.34 305.581 295.501C305.948 295.662 306.344 295.745 306.744 295.745C307.144 295.745 307.54 295.662 307.907 295.501C308.273 295.34 308.603 295.105 308.875 294.811C309.146 294.516 309.354 294.169 309.485 293.79C309.617 293.411 309.668 293.009 309.637 292.609C309.655 292.432 309.655 292.253 309.637 292.077C309.507 292.754 309.139 293.362 308.6 293.792C308.062 294.221 307.387 294.443 306.7 294.418Z" fill="#267FE5"/>
<path d="M306.7 314.551C308.303 314.551 309.602 313.249 309.602 311.642C309.602 310.036 308.303 308.733 306.7 308.733C305.097 308.733 303.798 310.036 303.798 311.642C303.798 313.249 305.097 314.551 306.7 314.551Z" fill="#6DE0F6"/>
<path d="M306.7 313.452C306.024 313.455 305.369 313.221 304.849 312.789C304.328 312.358 303.975 311.758 303.851 311.092C303.832 311.275 303.832 311.459 303.851 311.642C303.908 312.372 304.237 313.054 304.774 313.551C305.31 314.048 306.013 314.324 306.744 314.324C307.474 314.324 308.178 314.048 308.714 313.551C309.251 313.054 309.58 312.372 309.637 311.642C309.655 311.459 309.655 311.275 309.637 311.092C309.51 311.773 309.144 312.386 308.605 312.819C308.066 313.252 307.39 313.476 306.7 313.452Z" fill="#267FE5"/>
<path d="M306.7 333.585C308.303 333.585 309.602 332.282 309.602 330.676C309.602 329.069 308.303 327.767 306.7 327.767C305.097 327.767 303.798 329.069 303.798 330.676C303.798 332.282 305.097 333.585 306.7 333.585Z" fill="#6DE0F6"/>
<path d="M306.7 332.485C306.024 332.488 305.369 332.254 304.849 331.823C304.328 331.392 303.975 330.791 303.851 330.126C303.832 330.309 303.832 330.493 303.851 330.676C303.908 331.406 304.237 332.087 304.774 332.585C305.31 333.082 306.013 333.358 306.744 333.358C307.474 333.358 308.178 333.082 308.714 332.585C309.251 332.087 309.58 331.406 309.637 330.676C309.655 330.493 309.655 330.309 309.637 330.126C309.51 330.807 309.144 331.419 308.605 331.852C308.066 332.285 307.39 332.51 306.7 332.485Z" fill="#267FE5"/>
<path d="M306.7 352.618C308.303 352.618 309.602 351.316 309.602 349.709C309.602 348.103 308.303 346.8 306.7 346.8C305.097 346.8 303.798 348.103 303.798 349.709C303.798 351.316 305.097 352.618 306.7 352.618Z" fill="#6DE0F6"/>
<path d="M306.7 351.519C306.026 351.519 305.372 351.283 304.852 350.852C304.333 350.422 303.978 349.823 303.851 349.159C303.834 349.336 303.834 349.515 303.851 349.692C303.82 350.092 303.871 350.494 304.003 350.873C304.134 351.252 304.342 351.599 304.614 351.894C304.885 352.188 305.215 352.423 305.581 352.584C305.948 352.745 306.344 352.828 306.744 352.828C307.144 352.828 307.54 352.745 307.907 352.584C308.274 352.423 308.603 352.188 308.875 351.894C309.147 351.599 309.354 351.252 309.486 350.873C309.617 350.494 309.669 350.092 309.637 349.692C309.655 349.515 309.655 349.336 309.637 349.159C309.507 349.839 309.14 350.449 308.602 350.881C308.064 351.314 307.389 351.54 306.7 351.519Z" fill="#267FE5"/>
<path d="M306.7 371.634C308.303 371.634 309.602 370.332 309.602 368.725C309.602 367.118 308.303 365.816 306.7 365.816C305.097 365.816 303.798 367.118 303.798 368.725C303.798 370.332 305.097 371.634 306.7 371.634Z" fill="#6DE0F6"/>
<path d="M306.7 370.464C306.024 370.467 305.369 370.232 304.849 369.801C304.328 369.37 303.975 368.77 303.851 368.104C303.832 368.287 303.832 368.471 303.851 368.654C303.819 369.054 303.871 369.456 304.002 369.835C304.134 370.214 304.342 370.562 304.613 370.856C304.885 371.151 305.215 371.386 305.581 371.547C305.948 371.707 306.344 371.79 306.744 371.79C307.144 371.79 307.54 371.707 307.907 371.547C308.273 371.386 308.603 371.151 308.875 370.856C309.146 370.562 309.354 370.214 309.485 369.835C309.617 369.456 309.668 369.054 309.637 368.654C309.655 368.471 309.655 368.287 309.637 368.104C309.51 368.785 309.144 369.397 308.605 369.83C308.066 370.263 307.39 370.488 306.7 370.464Z" fill="#267FE5"/>
<path d="M306.7 390.668C308.303 390.668 309.602 389.365 309.602 387.759C309.602 386.152 308.303 384.85 306.7 384.85C305.097 384.85 303.798 386.152 303.798 387.759C303.798 389.365 305.097 390.668 306.7 390.668Z" fill="#6DE0F6"/>
<path d="M306.7 389.568C306.024 389.571 305.369 389.337 304.849 388.906C304.328 388.475 303.975 387.874 303.851 387.209C303.832 387.392 303.832 387.576 303.851 387.759C303.908 388.489 304.237 389.17 304.774 389.668C305.31 390.165 306.013 390.441 306.744 390.441C307.474 390.441 308.178 390.165 308.714 389.668C309.251 389.17 309.58 388.489 309.637 387.759C309.655 387.576 309.655 387.392 309.637 387.209C309.51 387.889 309.144 388.502 308.605 388.935C308.066 389.368 307.39 389.593 306.7 389.568Z" fill="#267FE5"/>
<path d="M306.7 409.701C308.303 409.701 309.602 408.399 309.602 406.792C309.602 405.186 308.303 403.883 306.7 403.883C305.097 403.883 303.798 405.186 303.798 406.792C303.798 408.399 305.097 409.701 306.7 409.701Z" fill="#6DE0F6"/>
<path d="M306.7 408.602C306.026 408.601 305.372 408.366 304.852 407.935C304.333 407.505 303.978 406.906 303.851 406.242C303.834 406.419 303.834 406.598 303.851 406.775C303.82 407.174 303.871 407.577 304.003 407.955C304.134 408.334 304.342 408.682 304.614 408.977C304.885 409.271 305.215 409.506 305.581 409.667C305.948 409.828 306.344 409.911 306.744 409.911C307.144 409.911 307.54 409.828 307.907 409.667C308.274 409.506 308.603 409.271 308.875 408.977C309.147 408.682 309.354 408.334 309.486 407.955C309.617 407.577 309.669 407.174 309.637 406.775C309.655 406.598 309.655 406.419 309.637 406.242C309.507 406.921 309.14 407.532 308.602 407.964C308.064 408.396 307.389 408.622 306.7 408.602Z" fill="#267FE5"/>
<path d="M306.7 428.717C308.303 428.717 309.602 427.415 309.602 425.808C309.602 424.201 308.303 422.899 306.7 422.899C305.097 422.899 303.798 424.201 303.798 425.808C303.798 427.415 305.097 428.717 306.7 428.717Z" fill="#6DE0F6"/>
<path d="M306.7 427.617C306.025 427.621 305.37 427.386 304.849 426.955C304.328 426.524 303.975 425.924 303.851 425.258C303.762 425.682 303.769 426.12 303.87 426.54C303.972 426.961 304.166 427.354 304.438 427.69C304.71 428.026 305.054 428.296 305.443 428.482C305.833 428.668 306.259 428.765 306.691 428.765C307.123 428.765 307.549 428.668 307.939 428.482C308.329 428.296 308.672 428.026 308.944 427.69C309.216 427.354 309.41 426.961 309.512 426.54C309.613 426.12 309.62 425.682 309.531 425.258C309.408 425.921 309.057 426.519 308.54 426.949C308.023 427.38 307.372 427.616 306.7 427.617Z" fill="#267FE5"/>
<path d="M265.292 397.976C264.668 397.947 264.06 397.764 263.523 397.444L259.205 394.943C257.915 394.013 256.86 392.795 256.123 391.384C255.385 389.974 254.987 388.411 254.958 386.819V270.028C254.888 269.331 254.999 268.628 255.282 267.987C255.564 267.347 256.007 266.791 256.568 266.373C257.054 266.13 257.595 266.022 258.137 266.06C258.678 266.097 259.2 266.279 259.647 266.586L263.965 269.087C265.26 270.013 266.32 271.23 267.061 272.641C267.801 274.052 268.202 275.618 268.23 277.212V393.985C268.299 394.686 268.186 395.393 267.9 396.037C267.615 396.681 267.167 397.239 266.602 397.657C266.203 397.882 265.75 397.992 265.292 397.976ZM257.771 266.923C257.486 266.92 257.205 266.993 256.957 267.136C256.529 267.476 256.195 267.92 255.988 268.426C255.78 268.933 255.706 269.484 255.772 270.028V386.819C255.792 388.259 256.149 389.675 256.812 390.954C257.476 392.232 258.429 393.337 259.594 394.18L263.912 396.681C264.229 396.909 264.601 397.049 264.989 397.086C265.378 397.124 265.769 397.057 266.124 396.894C266.548 396.548 266.877 396.099 267.081 395.59C267.286 395.082 267.358 394.529 267.292 393.985V277.212C267.271 275.771 266.915 274.355 266.251 273.077C265.588 271.798 264.635 270.694 263.469 269.85L259.152 267.349C258.737 267.087 258.261 266.94 257.771 266.923Z" fill="#161242"/>
<path d="M193.448 357.018C192.823 356.993 192.214 356.81 191.679 356.486L187.361 353.984C186.066 353.059 185.006 351.841 184.265 350.43C183.525 349.02 183.124 347.454 183.096 345.86V229.087C183.023 228.387 183.133 227.681 183.415 227.037C183.698 226.393 184.143 225.834 184.707 225.415C185.195 225.172 185.74 225.064 186.284 225.102C186.828 225.139 187.352 225.321 187.803 225.628L192.121 228.129C193.411 229.059 194.466 230.277 195.203 231.687C195.94 233.098 196.339 234.661 196.368 236.253V353.044C196.438 353.741 196.327 354.444 196.044 355.085C195.762 355.725 195.319 356.281 194.758 356.698C194.357 356.918 193.905 357.028 193.448 357.018ZM187.75 353.222L192.068 355.723C192.382 355.949 192.751 356.088 193.136 356.126C193.522 356.163 193.91 356.097 194.262 355.936C194.688 355.594 195.02 355.149 195.227 354.643C195.435 354.138 195.511 353.587 195.448 353.044V236.253C195.427 234.812 195.071 233.396 194.407 232.118C193.744 230.84 192.791 229.735 191.626 228.892L187.308 226.391C186.991 226.163 186.619 226.023 186.23 225.985C185.842 225.948 185.451 226.014 185.096 226.178C184.672 226.524 184.343 226.973 184.138 227.481C183.934 227.99 183.862 228.542 183.928 229.087V345.86C183.948 347.301 184.305 348.717 184.968 349.995C185.632 351.273 186.585 352.378 187.75 353.222Z" fill="#161242"/>
<path d="M229.37 377.559C228.742 377.536 228.131 377.347 227.6 377.009L223.283 374.508C221.988 373.586 220.928 372.372 220.187 370.964C219.447 369.556 219.046 367.993 219.018 366.401V249.557C218.946 248.858 219.059 248.153 219.345 247.512C219.63 246.871 220.079 246.316 220.646 245.903C221.13 245.653 221.672 245.54 222.215 245.578C222.758 245.615 223.281 245.801 223.725 246.116L228.043 248.617C229.335 249.54 230.393 250.755 231.13 252.163C231.868 253.571 232.265 255.133 232.29 256.724V373.515C232.365 374.212 232.256 374.917 231.974 375.558C231.691 376.2 231.244 376.755 230.679 377.169C230.291 377.426 229.835 377.562 229.37 377.559ZM221.849 246.506C221.564 246.501 221.282 246.575 221.035 246.719C220.606 247.057 220.271 247.502 220.063 248.008C219.855 248.515 219.782 249.067 219.85 249.61V366.401C219.869 367.84 220.225 369.254 220.889 370.53C221.552 371.805 222.506 372.907 223.672 373.745L227.99 376.246C228.304 376.473 228.673 376.612 229.058 376.649C229.444 376.686 229.832 376.621 230.184 376.459C230.614 376.121 230.949 375.677 231.156 375.17C231.364 374.663 231.438 374.111 231.37 373.568V256.724C231.351 255.285 230.995 253.871 230.331 252.595C229.667 251.32 228.714 250.218 227.547 249.38L223.23 246.879C222.814 246.619 222.339 246.472 221.849 246.453V246.506Z" fill="#161242"/>
<path opacity="0.5" d="M420.924 147.773L416.854 170.017L438.018 157.831L420.924 147.773Z" fill="#13113D"/>
<path d="M309.726 40.2946L304.789 43.1683L309.726 48.8092V90.6723C309.726 99.8077 315.265 110.415 322.113 114.371L412.962 166.966L413.245 167.108L416.183 170.461L420.801 167.764L420.996 167.64L421.421 167.392C423.845 165.778 425.367 162.372 425.367 157.6V107.222L309.726 40.2946Z" fill="url(#paint6_linear_147_3)"/>
<path d="M304.789 43.1683L420.412 110.078V160.456C420.412 169.591 414.873 173.795 408.025 169.84L317.176 117.245C310.328 113.289 304.789 102.681 304.789 93.5282V43.1683Z" fill="#6DE0F6"/>
<path opacity="0.5" d="M302.082 239.003L279.945 251.916L180.602 194.426L201.182 182.576L302.082 239.003Z" fill="#38025B"/>
<path style="mix-blend-mode:lighten" d="M421 23H195V196.389H195.143C194.624 198.263 196.056 200.101 199.601 201.431L295.647 237.284C302.468 239.829 314.391 239.505 322.286 236.567L414.484 202.183C418.888 200.529 421.018 198.424 420.911 196.4H421V23Z" fill="url(#paint7_linear_147_3)"/>
<path d="M197.128 108.216L192.191 111.089L197.128 116.73V158.593C197.128 167.729 202.667 178.337 209.515 182.292L300.364 234.887L300.648 235.029L303.585 238.382L308.204 235.686L308.381 235.561L308.823 235.313C311.247 233.699 312.769 230.293 312.769 225.521V175.144L197.128 108.216Z" fill="url(#paint8_linear_147_3)"/>
<path d="M192.191 111.089L307.814 178V228.377C307.814 237.513 302.258 241.717 295.427 237.761L204.578 185.166C197.73 181.21 192.191 170.603 192.191 161.467V111.089Z" fill="url(#paint9_linear_147_3)"/>
<path opacity="0.5" d="M438.355 158.026L420.925 147.773L438.355 158.026Z" fill="#38025B"/>
<defs>
<linearGradient id="paint0_linear_147_3" x1="70.9988" y1="341.657" x2="12.0214" y2="400.491" gradientUnits="userSpaceOnUse">
<stop stop-color="#D4088C"/>
<stop offset="0.04" stop-color="#CC088C"/>
<stop offset="0.46" stop-color="#85078A"/>
<stop offset="0.76" stop-color="#590689"/>
<stop offset="0.91" stop-color="#480689"/>
</linearGradient>
<linearGradient id="paint1_linear_147_3" x1="112.686" y1="76.4814" x2="78.2325" y2="76.4814" gradientUnits="userSpaceOnUse">
<stop stop-color="#6EE8FC"/>
<stop offset="0.16" stop-color="#6AE2FB"/>
<stop offset="0.37" stop-color="#5ED1F7"/>
<stop offset="0.61" stop-color="#4BB5F1"/>
<stop offset="0.87" stop-color="#308EE8"/>
<stop offset="0.96" stop-color="#267FE5"/>
</linearGradient>
<linearGradient id="paint2_linear_147_3" x1="557.74" y1="229.164" x2="627.186" y2="263.584" gradientUnits="userSpaceOnUse">
<stop stop-color="#6EE8FC"/>
<stop offset="0.16" stop-color="#6AE2FB"/>
<stop offset="0.37" stop-color="#5ED1F7"/>
<stop offset="0.61" stop-color="#4BB5F1"/>
<stop offset="0.87" stop-color="#308EE8"/>
<stop offset="0.96" stop-color="#267FE5"/>
</linearGradient>
<linearGradient id="paint3_linear_147_3" x1="114.172" y1="387.759" x2="499.21" y2="387.759" gradientUnits="userSpaceOnUse">
<stop stop-color="#D4088C"/>
<stop offset="0.23" stop-color="#8D139B"/>
<stop offset="0.51" stop-color="#6EE1F8"/>
<stop offset="0.78" stop-color="#6EE8FC"/>
<stop offset="1" stop-color="#6EE8FC"/>
</linearGradient>
<linearGradient id="paint4_linear_147_3" x1="128.275" y1="284.644" x2="493.866" y2="284.644" gradientUnits="userSpaceOnUse">
<stop stop-color="#A31FA9"/>
<stop offset="0.07" stop-color="#8B17A0"/>
<stop offset="0.15" stop-color="#740F98"/>
<stop offset="0.24" stop-color="#640A92"/>
<stop offset="0.34" stop-color="#5B078F"/>
<stop offset="0.48" stop-color="#58068E"/>
<stop offset="0.63" stop-color="#4D22A3"/>
<stop offset="0.94" stop-color="#3168DA"/>
<stop offset="1" stop-color="#2C75E4"/>
</linearGradient>
<linearGradient id="paint5_linear_147_3" x1="157.755" y1="178.062" x2="440.38" y2="246.667" gradientUnits="userSpaceOnUse">
<stop stop-color="#8D139B"/>
<stop offset="0.17" stop-color="#851BA1"/>
<stop offset="0.43" stop-color="#6E33B2"/>
<stop offset="0.76" stop-color="#4958CD"/>
<stop offset="1" stop-color="#2979E4"/>
</linearGradient>
<linearGradient id="paint6_linear_147_3" x1="176.797" y1="62.4856" x2="425.781" y2="119.571" gradientUnits="userSpaceOnUse">
<stop stop-color="#8D139B"/>
<stop offset="0.17" stop-color="#851BA1"/>
<stop offset="0.43" stop-color="#6E33B2"/>
<stop offset="0.76" stop-color="#4958CD"/>
<stop offset="1" stop-color="#2979E4"/>
</linearGradient>
<linearGradient id="paint7_linear_147_3" x1="308" y1="238.973" x2="308" y2="23" gradientUnits="userSpaceOnUse">
<stop stop-color="#520689" stop-opacity="0"/>
<stop offset="0.61" stop-color="#70078A" stop-opacity="0.53"/>
<stop offset="1" stop-color="#B8088C" stop-opacity="0"/>
</linearGradient>
<linearGradient id="paint8_linear_147_3" x1="64.1993" y1="130.407" x2="313.184" y2="187.492" gradientUnits="userSpaceOnUse">
<stop stop-color="#8D139B"/>
<stop offset="0.17" stop-color="#851BA1"/>
<stop offset="0.43" stop-color="#6E33B2"/>
<stop offset="0.76" stop-color="#4958CD"/>
<stop offset="1" stop-color="#2979E4"/>
</linearGradient>
<linearGradient id="paint9_linear_147_3" x1="153.196" y1="170.984" x2="367.16" y2="111.731" gradientUnits="userSpaceOnUse">
<stop stop-color="#8D139B"/>
<stop offset="0.17" stop-color="#851BA1"/>
<stop offset="0.43" stop-color="#6E33B2"/>
<stop offset="0.76" stop-color="#4958CD"/>
<stop offset="1" stop-color="#2979E4"/>
</linearGradient>
</defs>
</svg>
