<svg width="633" height="631" viewBox="0 0 633 631" fill="none" xmlns="http://www.w3.org/2000/svg">
<path d="M41.6023 531.859C64.5786 531.859 83.2046 513.187 83.2046 490.155C83.2046 467.123 64.5786 448.452 41.6023 448.452C18.626 448.452 0 467.123 0 490.155C0 513.187 18.626 531.859 41.6023 531.859Z" fill="url(#paint0_linear_1046_42)"/>
<path d="M95.4498 212.759C104.969 212.759 112.685 205.023 112.685 195.481C112.685 185.939 104.969 178.204 95.4498 178.204C85.9309 178.204 78.2144 185.939 78.2144 195.481C78.2144 205.023 85.9309 212.759 95.4498 212.759Z" fill="url(#paint1_linear_1046_42)"/>
<path d="M610.949 385.662C623.043 373.539 623.043 353.884 610.949 341.761C598.856 329.638 579.248 329.638 567.155 341.761C555.062 353.884 555.062 373.539 567.155 385.662C579.248 397.785 598.856 397.785 610.949 385.662Z" fill="url(#paint2_linear_1046_42)"/>
<path opacity="0.8" d="M596.96 489.463C584.573 491.894 571.018 488.009 566.878 480.807C562.737 473.605 569.39 465.8 581.83 463.37C594.27 460.94 607.772 464.825 611.913 472.044C616.054 479.264 609.418 487.016 596.96 489.463Z" fill="#0C0F38"/>
<path opacity="0.8" d="M42.0976 631C60.3731 631 75.1883 622.423 75.1883 611.842C75.1883 601.262 60.3731 592.684 42.0976 592.684C23.8221 592.684 9.00684 601.262 9.00684 611.842C9.00684 622.423 23.8221 631 42.0976 631Z" fill="#0C0F38"/>
<path opacity="0.8" d="M95.4499 265.655C102.008 265.655 107.324 262.574 107.324 258.773C107.324 254.972 102.008 251.89 95.4499 251.89C88.8922 251.89 83.5762 254.972 83.5762 258.773C83.5762 262.574 88.8922 265.655 95.4499 265.655Z" fill="#0C0F38"/>
<g style="mix-blend-mode:lighten" opacity="0.8">
<path d="M213.674 123.622C213.671 124.495 213.409 125.347 212.923 126.071C212.437 126.795 211.747 127.359 210.942 127.69C210.137 128.022 209.251 128.107 208.398 127.934C207.544 127.762 206.761 127.34 206.146 126.721C205.532 126.103 205.114 125.316 204.945 124.46C204.777 123.603 204.865 122.716 205.199 121.91C205.533 121.104 206.098 120.415 206.822 119.931C207.546 119.446 208.397 119.188 209.268 119.188C209.848 119.187 210.423 119.302 210.958 119.525C211.494 119.748 211.981 120.075 212.39 120.487C212.799 120.899 213.123 121.388 213.344 121.926C213.564 122.464 213.677 123.041 213.674 123.622Z" fill="#D4088C"/>
</g>
<g style="mix-blend-mode:lighten" opacity="0.8">
<path d="M131.903 578.884C134.845 578.884 137.229 576.493 137.229 573.544C137.229 570.596 134.845 568.205 131.903 568.205C128.961 568.205 126.577 570.596 126.577 573.544C126.577 576.493 128.961 578.884 131.903 578.884Z" fill="#D4088C"/>
</g>
<g style="mix-blend-mode:lighten">
<path d="M100.918 549.934C100.921 550.479 100.763 551.012 100.464 551.467C100.165 551.921 99.7377 552.276 99.2368 552.487C98.736 552.698 98.1839 552.755 97.6507 552.651C97.1175 552.547 96.6271 552.286 96.2418 551.903C95.8564 551.519 95.5934 551.029 95.4861 550.495C95.3789 549.961 95.4321 549.408 95.6392 548.904C95.8463 548.401 96.1978 547.97 96.6492 547.667C97.1007 547.364 97.6317 547.203 98.1749 547.203C98.5343 547.2 98.8905 547.269 99.2232 547.406C99.5558 547.542 99.8584 547.743 100.113 547.997C100.368 548.25 100.571 548.552 100.709 548.885C100.847 549.218 100.918 549.574 100.918 549.934Z" fill="#6EE8FC"/>
</g>
<g style="mix-blend-mode:lighten">
<path d="M565.586 448.665C565.586 449.226 565.42 449.775 565.109 450.241C564.798 450.708 564.355 451.072 563.838 451.287C563.321 451.502 562.751 451.558 562.202 451.448C561.653 451.339 561.149 451.068 560.753 450.672C560.357 450.275 560.087 449.769 559.978 449.218C559.869 448.668 559.925 448.097 560.139 447.579C560.353 447.06 560.716 446.617 561.182 446.305C561.647 445.993 562.195 445.826 562.755 445.826C563.127 445.824 563.496 445.896 563.841 446.038C564.185 446.18 564.499 446.388 564.762 446.653C565.025 446.917 565.234 447.23 565.375 447.576C565.517 447.921 565.588 448.291 565.586 448.665Z" fill="#6EE8FC"/>
</g>
<g style="mix-blend-mode:lighten">
<path d="M42.0802 257.176C42.0802 257.966 41.8467 258.737 41.4092 259.394C40.9717 260.05 40.3499 260.562 39.6223 260.864C38.8948 261.166 38.0943 261.245 37.3219 261.091C36.5496 260.937 35.8402 260.557 35.2833 259.998C34.7265 259.44 34.3473 258.729 34.1937 257.955C34.0401 257.181 34.1189 256.378 34.4203 255.649C34.7216 254.92 35.2319 254.296 35.8867 253.858C36.5414 253.419 37.3112 253.185 38.0987 253.185C39.1546 253.185 40.1674 253.606 40.9141 254.354C41.6607 255.103 42.0802 256.118 42.0802 257.176Z" fill="#6EE8FC"/>
</g>
<g style="mix-blend-mode:lighten">
<path d="M58.3067 248.342C58.3067 248.781 58.177 249.21 57.9339 249.574C57.6909 249.939 57.3454 250.223 56.9412 250.391C56.5371 250.559 56.0923 250.603 55.6632 250.517C55.2342 250.432 54.84 250.22 54.5307 249.91C54.2213 249.6 54.0107 249.205 53.9253 248.775C53.84 248.345 53.8838 247.899 54.0512 247.494C54.2186 247.089 54.5021 246.742 54.8659 246.499C55.2296 246.255 55.6573 246.125 56.0948 246.125C56.3859 246.123 56.6746 246.178 56.944 246.289C57.2134 246.4 57.4582 246.563 57.6641 246.769C57.87 246.976 58.0328 247.221 58.1431 247.491C58.2535 247.761 58.3091 248.051 58.3067 248.342Z" fill="#6EE8FC"/>
</g>
<g style="mix-blend-mode:lighten">
<path d="M437.93 125.822C437.934 126.342 437.783 126.851 437.497 127.285C437.212 127.719 436.804 128.058 436.326 128.26C435.848 128.461 435.32 128.516 434.811 128.416C434.302 128.317 433.834 128.069 433.466 127.702C433.098 127.336 432.847 126.868 432.744 126.358C432.642 125.848 432.692 125.32 432.89 124.839C433.088 124.358 433.423 123.947 433.854 123.658C434.286 123.369 434.793 123.214 435.311 123.214C436.003 123.214 436.666 123.488 437.157 123.977C437.648 124.465 437.926 125.128 437.93 125.822Z" fill="#D4088C"/>
</g>
<path d="M55.2808 388.105L54.3252 384.681L61.8989 382.553L59.7754 374.961L63.1907 374.003L66.2697 385.018L55.2808 388.105Z" fill="#6EE1F8"/>
<path d="M48.5923 400.007L47.6367 396.584L55.2104 394.455L53.1047 386.863L56.5022 385.905L59.5812 396.921L48.5923 400.007Z" fill="#6EE1F8"/>
<path d="M55.6878 396.176L52.6265 385.16L63.6154 382.074L64.5533 385.497L56.9796 387.626L59.1031 395.218L55.6878 396.176Z" fill="#6EE1F8"/>
<path d="M501.793 556.764L492.238 547.185L501.793 537.606L511.349 547.185L501.793 556.764ZM497.246 547.185L501.793 551.761L506.359 547.185L501.793 542.679L497.246 547.185Z" fill="#6EE1F8"/>
<path d="M524.575 207.037L522.073 209.546L532.308 219.806L534.811 217.298L524.575 207.037Z" fill="#D4088C"/>
<path d="M532.308 207.055L522.073 217.315L524.575 219.824L534.811 209.564L532.308 207.055Z" fill="#D4088C"/>
<path d="M305.337 618.53C298.381 618.721 291.492 617.127 285.323 613.9L122.524 519.619C117.215 516.532 114.26 512.222 114.26 507.486C114.26 501.845 118.454 496.169 125.762 491.947L282.121 401.48C295.728 393.604 316.379 392.77 328.129 399.6L490.928 493.845C496.237 496.931 499.192 501.242 499.192 505.978C499.192 511.637 494.998 517.295 487.69 521.535L331.332 612.037C323.357 616.376 314.411 618.611 305.337 618.53ZM308.045 396.797C299.273 396.72 290.626 398.881 282.917 403.076L126.559 493.543C119.799 497.446 115.941 502.554 115.941 507.557C115.941 511.637 118.56 515.397 123.32 518.2L286.12 612.463C297.427 619.008 317.299 618.175 330.359 610.583L486.717 520.116C493.477 516.213 497.334 511.104 497.334 506.102C497.334 502.022 494.715 498.262 489.955 495.459L327.156 401.214C321.27 398.112 314.692 396.567 308.045 396.726V396.797Z" fill="url(#paint3_linear_1046_42)"/>
<path opacity="0.8" d="M291.199 585.359L170.869 515.717C162.304 510.768 163.383 502.111 173.257 496.399L288.81 429.525C298.684 423.813 313.583 423.192 322.183 428.141L442.513 497.783C451.078 502.732 449.999 511.388 440.125 517.1L324.59 583.975C314.698 589.687 299.763 590.308 291.199 585.359Z" fill="#0C0F38"/>
<path d="M456.723 293.594H393.496L323.103 252.795C314.043 247.473 298.206 248.218 287.712 254.267L219.85 293.594H156.677V471.157C156.429 474.705 158.446 478.128 162.746 480.647L290.26 554.44C299.321 559.762 315.158 559.034 325.652 552.968L448.123 482.12C453.555 478.98 456.457 475.024 456.74 471.157L456.723 293.594Z" fill="url(#paint4_linear_1046_42)"/>
<path d="M172.691 293.594H156.765V471.157C156.689 472.482 156.91 473.807 157.412 475.035C157.914 476.263 158.685 477.363 159.667 478.253C158.389 476.588 157.76 474.513 157.898 472.417V294.835H174.089C173.541 294.339 173.116 293.984 172.691 293.594Z" fill="#D4088C"/>
<path d="M436.497 293.594L436.125 294.658H455.59V472.221C455.27 474.927 454.019 477.437 452.051 479.317C454.605 477.318 456.276 474.395 456.705 471.175V293.594H436.497Z" fill="#6DE0F6"/>
<g style="mix-blend-mode:lighten" opacity="0.5">
<path d="M201.358 502.98V297.035H178.389V489.694L201.358 502.98Z" fill="#D4088C"/>
</g>
<g style="mix-blend-mode:lighten" opacity="0.3">
<path d="M215.444 511.14V310.871H209.18V507.504L215.444 511.14Z" fill="#D4088C"/>
</g>
<g style="mix-blend-mode:lighten" opacity="0.15">
<path d="M226.68 517.632V313.283H220.416V514.014L226.68 517.632Z" fill="#D4088C"/>
</g>
<path d="M290.278 376.894L162.764 303.084C153.704 297.762 154.836 288.68 165.312 282.613L287.73 211.765C298.206 205.716 314.043 205.042 323.121 210.293L450.635 284.086C459.696 289.407 458.563 298.507 448.087 304.556L325.669 375.51C315.176 381.471 299.338 382.127 290.278 376.894Z" fill="url(#paint5_linear_1046_42)"/>
<path d="M291.676 376.894L164.268 303.084C155.19 297.762 156.34 288.68 166.798 282.613L289.234 211.765C294.776 208.726 300.952 207.031 307.266 206.816C300.468 206.816 293.777 208.517 287.801 211.765L165.383 282.613C154.907 288.68 153.774 297.851 162.835 303.084L290.349 376.894C295.693 379.656 301.694 380.884 307.691 380.442C302.135 380.687 296.612 379.463 291.676 376.894Z" fill="#D4088C"/>
<path d="M450.618 284.086L323.104 210.293C317.753 207.531 311.746 206.303 305.744 206.745C311.205 206.55 316.624 207.772 321.475 210.293L448.972 284.086C458.05 289.407 456.9 298.507 446.442 304.556L324.024 375.511C318.487 378.547 312.317 380.242 306.01 380.46C312.867 380.482 319.62 378.781 325.652 375.511L448.07 304.556C458.545 298.507 459.678 289.336 450.618 284.086Z" fill="#6DE0F6"/>
<path d="M294.472 355.608L199.535 300.618C192.793 296.698 193.643 289.975 201.429 285.363L292.579 232.626C300.365 228.103 312.168 227.624 318.91 231.526L413.846 286.516C420.588 290.418 419.739 297.159 411.953 301.753L320.803 354.508C313.017 359.014 301.249 359.51 294.472 355.608Z" fill="#6DE0F6"/>
<path d="M201.429 295.687L292.579 242.897C300.365 238.391 312.168 237.894 318.91 241.815L413.846 296.804C414.657 297.272 415.411 297.831 416.094 298.472C419.721 294.374 419.084 289.602 413.846 286.534L318.91 231.544C312.168 227.641 300.365 228.12 292.579 232.644L201.429 285.469C194.651 289.39 193.147 295.066 197.288 299.039C198.482 297.709 199.88 296.578 201.429 295.687Z" fill="#267FE5"/>
<path d="M329.28 389.489L437.223 326.942C437.761 326.551 438.201 326.04 438.508 325.449C438.816 324.858 438.981 324.203 438.992 323.537V321.763C438.992 320.432 438.178 319.829 437.223 320.397L329.28 382.943C328.74 383.337 328.299 383.851 327.992 384.446C327.685 385.04 327.52 385.698 327.51 386.367V388.141C327.492 389.453 328.306 390.127 329.28 389.489Z" fill="#6DE0F6"/>
<path d="M434.78 325.594C435.323 325.203 435.767 324.69 436.074 324.095C436.381 323.5 436.545 322.841 436.55 322.171V320.734L437.134 320.397C438.107 319.829 438.904 320.397 438.904 321.763V323.536C438.893 324.203 438.727 324.858 438.42 325.449C438.113 326.04 437.672 326.551 437.134 326.942L329.191 389.489C328.218 390.056 327.421 389.489 327.421 388.14V387.803L434.78 325.594Z" fill="#267FE5"/>
<path d="M329.28 408.522L437.223 345.976C437.762 345.582 438.203 345.068 438.511 344.473C438.818 343.879 438.983 343.221 438.992 342.552V340.778C438.992 339.466 438.178 338.863 437.223 339.43L329.28 401.959C328.743 402.356 328.304 402.871 327.997 403.464C327.69 404.058 327.524 404.714 327.51 405.383V407.156C327.492 408.487 328.306 409.09 329.28 408.522Z" fill="#6DE0F6"/>
<path d="M434.78 344.628C435.321 344.235 435.763 343.721 436.07 343.126C436.377 342.532 436.542 341.873 436.55 341.204V339.767L437.134 339.43C438.107 338.863 438.904 339.43 438.904 340.778V342.552C438.894 343.221 438.729 343.879 438.422 344.473C438.115 345.068 437.674 345.582 437.134 345.976L329.191 408.522C328.218 409.09 327.421 408.522 327.421 407.156V406.837L434.78 344.628Z" fill="#267FE5"/>
<path d="M329.28 427.538L437.223 365.009C437.761 364.615 438.202 364.1 438.509 363.506C438.816 362.912 438.981 362.255 438.992 361.586V359.812C438.992 358.499 438.178 357.878 437.223 358.464L329.28 420.992C328.741 421.387 328.301 421.902 327.994 422.496C327.687 423.09 327.521 423.747 327.51 424.416V426.19C327.492 427.502 328.306 428.123 329.28 427.538Z" fill="#6DE0F6"/>
<path d="M434.78 363.661C435.32 363.267 435.761 362.753 436.068 362.159C436.376 361.564 436.54 360.907 436.55 360.238V358.783L437.134 358.464C438.107 357.878 438.904 358.464 438.904 359.812V361.586C438.893 362.255 438.727 362.912 438.42 363.506C438.113 364.1 437.673 364.614 437.134 365.009L329.191 427.538C328.218 428.123 327.421 427.538 327.421 426.19V425.853L434.78 363.661Z" fill="#267FE5"/>
<path d="M329.28 446.572L437.223 384.043C437.759 383.646 438.198 383.131 438.505 382.538C438.812 381.944 438.979 381.288 438.992 380.619V378.845C438.992 377.515 438.178 376.912 437.223 377.48L329.28 440.026C328.74 440.42 328.299 440.934 327.992 441.528C327.685 442.123 327.52 442.78 327.51 443.449V445.223C327.492 446.536 328.306 447.139 329.28 446.572Z" fill="#6DE0F6"/>
<path d="M434.78 382.677C435.323 382.286 435.767 381.772 436.074 381.177C436.381 380.583 436.545 379.923 436.55 379.253V377.816L437.134 377.479C438.107 376.912 438.904 377.479 438.904 378.845V380.619C438.89 381.288 438.723 381.944 438.416 382.537C438.11 383.131 437.671 383.646 437.134 384.043L329.191 446.571C328.218 447.139 327.421 446.571 327.421 445.223V444.886L434.78 382.677Z" fill="#267FE5"/>
<path d="M329.28 465.605L437.223 403.059C437.762 402.665 438.203 402.15 438.511 401.556C438.818 400.962 438.983 400.304 438.992 399.635V397.861C438.992 396.549 438.178 395.945 437.223 396.513L329.28 459.059C328.741 459.45 328.301 459.962 327.994 460.553C327.687 461.144 327.521 461.799 327.51 462.465V464.239C327.492 465.569 328.306 466.173 329.28 465.605Z" fill="#6DE0F6"/>
<path d="M434.78 401.711C435.321 401.318 435.763 400.804 436.07 400.209C436.377 399.615 436.542 398.957 436.55 398.287V396.85L437.134 396.513C438.107 395.946 438.904 396.513 438.904 397.861V399.635C438.894 400.304 438.729 400.962 438.422 401.556C438.115 402.151 437.674 402.665 437.134 403.059L329.191 465.605C328.218 466.173 327.421 465.605 327.421 464.239V463.92L434.78 401.711Z" fill="#267FE5"/>
<path d="M329.28 484.638L437.223 422.092C437.761 421.697 438.202 421.183 438.509 420.589C438.816 419.995 438.981 419.337 438.992 418.669V416.895C438.992 415.582 438.178 414.979 437.223 415.547L329.28 478.075C328.743 478.472 328.304 478.987 327.997 479.58C327.69 480.174 327.524 480.83 327.51 481.499V483.273C327.492 484.603 328.306 485.206 329.28 484.638Z" fill="#6DE0F6"/>
<path d="M434.78 420.744C435.321 420.351 435.763 419.837 436.07 419.243C436.377 418.648 436.542 417.99 436.55 417.321V415.884L437.134 415.547C438.107 414.979 438.904 415.547 438.904 416.895V418.669C438.893 419.338 438.727 419.995 438.42 420.589C438.113 421.183 437.673 421.697 437.134 422.092L329.191 484.639C328.218 485.206 327.421 484.639 327.421 483.273V482.953L434.78 420.744Z" fill="#267FE5"/>
<path d="M329.28 503.654L437.223 441.126C437.761 440.731 438.202 440.216 438.509 439.622C438.816 439.028 438.981 438.371 438.992 437.702V435.928C438.992 434.598 438.178 433.995 437.223 434.562L329.28 497.109C328.741 497.503 328.301 498.018 327.994 498.612C327.687 499.206 327.521 499.863 327.51 500.532V502.306C327.492 503.654 328.306 504.222 329.28 503.654Z" fill="#6DE0F6"/>
<path d="M434.78 439.795C435.321 439.406 435.763 438.895 436.07 438.304C436.377 437.712 436.542 437.056 436.55 436.389V434.935L437.134 434.598C438.107 434.03 438.904 434.598 438.904 435.964V437.738C438.89 438.406 438.723 439.062 438.416 439.656C438.11 440.25 437.671 440.764 437.134 441.161L329.191 503.69C328.218 504.257 327.421 503.69 327.421 502.342V502.005L434.78 439.795Z" fill="#267FE5"/>
<path d="M329.28 522.688L437.223 460.142C437.761 459.751 438.201 459.239 438.508 458.648C438.816 458.057 438.981 457.402 438.992 456.736V454.962C438.992 453.631 438.178 453.028 437.223 453.596L329.28 516.142C328.74 516.536 328.299 517.051 327.992 517.645C327.685 518.239 327.52 518.897 327.51 519.566V521.34C327.492 522.652 328.306 523.256 329.28 522.688Z" fill="#6DE0F6"/>
<path d="M434.78 458.793C435.323 458.402 435.767 457.889 436.074 457.294C436.381 456.699 436.545 456.04 436.55 455.37V453.986L437.134 453.649C438.107 453.081 438.904 453.649 438.904 455.015V456.789C438.893 457.455 438.727 458.11 438.42 458.701C438.113 459.292 437.672 459.804 437.134 460.195L329.191 522.741C328.218 523.309 327.421 522.741 327.421 521.393V521.056L434.78 458.793Z" fill="#267FE5"/>
<path d="M329.28 541.721L437.223 479.175C437.762 478.781 438.203 478.267 438.511 477.673C438.818 477.078 438.983 476.421 438.992 475.751V473.978C438.992 472.665 438.178 472.062 437.223 472.63L329.28 535.158C328.743 535.555 328.304 536.07 327.997 536.663C327.69 537.257 327.524 537.913 327.51 538.582V540.356C327.492 541.686 328.306 542.289 329.28 541.721Z" fill="#6DE0F6"/>
<path d="M434.78 477.827C435.321 477.434 435.763 476.92 436.07 476.325C436.377 475.731 436.542 475.073 436.55 474.403V472.966L437.134 472.629C438.107 472.062 438.904 472.629 438.904 473.978V475.751C438.894 476.421 438.729 477.078 438.422 477.673C438.115 478.267 437.674 478.781 437.134 479.175L329.191 541.721C328.218 542.289 327.421 541.721 327.421 540.355V540.036L434.78 477.827Z" fill="#267FE5"/>
<path d="M306.7 395.502C308.303 395.502 309.602 394.2 309.602 392.593C309.602 390.986 308.303 389.684 306.7 389.684C305.097 389.684 303.798 390.986 303.798 392.593C303.798 394.2 305.097 395.502 306.7 395.502Z" fill="#6DE0F6"/>
<path d="M306.7 394.402C306.026 394.402 305.372 394.166 304.852 393.736C304.333 393.305 303.978 392.707 303.851 392.043C303.834 392.22 303.834 392.398 303.851 392.575C303.82 392.975 303.871 393.377 304.003 393.756C304.134 394.135 304.342 394.483 304.614 394.777C304.885 395.072 305.215 395.307 305.581 395.468C305.948 395.628 306.344 395.711 306.744 395.711C307.144 395.711 307.54 395.628 307.907 395.468C308.274 395.307 308.603 395.072 308.875 394.777C309.147 394.483 309.354 394.135 309.486 393.756C309.617 393.377 309.669 392.975 309.637 392.575C309.655 392.398 309.655 392.22 309.637 392.043C309.507 392.722 309.14 393.332 308.602 393.765C308.064 394.197 307.389 394.423 306.7 394.402Z" fill="#267FE5"/>
<path d="M306.7 414.536C308.303 414.536 309.602 413.233 309.602 411.626C309.602 410.02 308.303 408.717 306.7 408.717C305.097 408.717 303.798 410.02 303.798 411.626C303.798 413.233 305.097 414.536 306.7 414.536Z" fill="#6DE0F6"/>
<path d="M306.7 413.418C306.027 413.422 305.374 413.19 304.854 412.763C304.333 412.335 303.979 411.739 303.851 411.076C303.832 411.253 303.832 411.432 303.851 411.609C303.819 412.009 303.871 412.411 304.002 412.79C304.134 413.169 304.342 413.516 304.613 413.811C304.885 414.105 305.215 414.34 305.581 414.501C305.948 414.662 306.344 414.745 306.744 414.745C307.144 414.745 307.54 414.662 307.907 414.501C308.273 414.34 308.603 414.105 308.875 413.811C309.146 413.516 309.354 413.169 309.485 412.79C309.617 412.411 309.668 412.009 309.637 411.609C309.655 411.432 309.655 411.253 309.637 411.076C309.507 411.754 309.139 412.362 308.6 412.792C308.062 413.221 307.387 413.443 306.7 413.418Z" fill="#267FE5"/>
<path d="M306.7 433.551C308.303 433.551 309.602 432.249 309.602 430.642C309.602 429.036 308.303 427.733 306.7 427.733C305.097 427.733 303.798 429.036 303.798 430.642C303.798 432.249 305.097 433.551 306.7 433.551Z" fill="#6DE0F6"/>
<path d="M306.7 432.452C306.024 432.455 305.369 432.22 304.849 431.789C304.328 431.358 303.975 430.758 303.851 430.092C303.832 430.275 303.832 430.459 303.851 430.642C303.908 431.372 304.237 432.054 304.774 432.551C305.31 433.048 306.013 433.324 306.744 433.324C307.474 433.324 308.178 433.048 308.714 432.551C309.251 432.054 309.58 431.372 309.637 430.642C309.655 430.459 309.655 430.275 309.637 430.092C309.51 430.773 309.144 431.385 308.605 431.818C308.066 432.251 307.39 432.476 306.7 432.452Z" fill="#267FE5"/>
<path d="M306.7 452.585C308.303 452.585 309.602 451.282 309.602 449.676C309.602 448.069 308.303 446.767 306.7 446.767C305.097 446.767 303.798 448.069 303.798 449.676C303.798 451.282 305.097 452.585 306.7 452.585Z" fill="#6DE0F6"/>
<path d="M306.7 451.485C306.024 451.488 305.369 451.254 304.849 450.823C304.328 450.392 303.975 449.791 303.851 449.126C303.832 449.309 303.832 449.493 303.851 449.676C303.908 450.406 304.237 451.087 304.774 451.584C305.31 452.082 306.013 452.358 306.744 452.358C307.474 452.358 308.178 452.082 308.714 451.584C309.251 451.087 309.58 450.406 309.637 449.676C309.655 449.493 309.655 449.309 309.637 449.126C309.51 449.806 309.144 450.419 308.605 450.852C308.066 451.285 307.39 451.509 306.7 451.485Z" fill="#267FE5"/>
<path d="M306.7 471.618C308.303 471.618 309.602 470.316 309.602 468.709C309.602 467.103 308.303 465.8 306.7 465.8C305.097 465.8 303.798 467.103 303.798 468.709C303.798 470.316 305.097 471.618 306.7 471.618Z" fill="#6DE0F6"/>
<path d="M306.7 470.519C306.026 470.519 305.372 470.283 304.852 469.852C304.333 469.422 303.978 468.823 303.851 468.159C303.834 468.336 303.834 468.515 303.851 468.692C303.82 469.092 303.871 469.494 304.003 469.873C304.134 470.252 304.342 470.599 304.614 470.894C304.885 471.188 305.215 471.423 305.581 471.584C305.948 471.745 306.344 471.828 306.744 471.828C307.144 471.828 307.54 471.745 307.907 471.584C308.274 471.423 308.603 471.188 308.875 470.894C309.147 470.599 309.354 470.252 309.486 469.873C309.617 469.494 309.669 469.092 309.637 468.692C309.655 468.515 309.655 468.336 309.637 468.159C309.507 468.838 309.14 469.449 308.602 469.881C308.064 470.314 307.389 470.54 306.7 470.519Z" fill="#267FE5"/>
<path d="M306.7 490.634C308.303 490.634 309.602 489.332 309.602 487.725C309.602 486.118 308.303 484.816 306.7 484.816C305.097 484.816 303.798 486.118 303.798 487.725C303.798 489.332 305.097 490.634 306.7 490.634Z" fill="#6DE0F6"/>
<path d="M306.7 489.463C306.024 489.467 305.369 489.232 304.849 488.801C304.328 488.37 303.975 487.77 303.851 487.104C303.832 487.287 303.832 487.471 303.851 487.654C303.819 488.054 303.871 488.456 304.002 488.835C304.134 489.214 304.342 489.562 304.613 489.856C304.885 490.151 305.215 490.386 305.581 490.547C305.948 490.707 306.344 490.79 306.744 490.79C307.144 490.79 307.54 490.707 307.907 490.547C308.273 490.386 308.603 490.151 308.875 489.856C309.146 489.562 309.354 489.214 309.485 488.835C309.617 488.456 309.668 488.054 309.637 487.654C309.655 487.471 309.655 487.287 309.637 487.104C309.51 487.785 309.144 488.397 308.605 488.83C308.066 489.263 307.39 489.488 306.7 489.463Z" fill="#267FE5"/>
<path d="M306.7 509.668C308.303 509.668 309.602 508.365 309.602 506.758C309.602 505.152 308.303 503.849 306.7 503.849C305.097 503.849 303.798 505.152 303.798 506.758C303.798 508.365 305.097 509.668 306.7 509.668Z" fill="#6DE0F6"/>
<path d="M306.7 508.568C306.024 508.571 305.369 508.337 304.849 507.906C304.328 507.475 303.975 506.874 303.851 506.209C303.832 506.392 303.832 506.576 303.851 506.759C303.908 507.489 304.237 508.17 304.774 508.667C305.31 509.165 306.013 509.441 306.744 509.441C307.474 509.441 308.178 509.165 308.714 508.667C309.251 508.17 309.58 507.489 309.637 506.759C309.655 506.576 309.655 506.392 309.637 506.209C309.51 506.889 309.144 507.502 308.605 507.935C308.066 508.368 307.39 508.592 306.7 508.568Z" fill="#267FE5"/>
<path d="M306.7 528.701C308.303 528.701 309.602 527.399 309.602 525.792C309.602 524.186 308.303 522.883 306.7 522.883C305.097 522.883 303.798 524.186 303.798 525.792C303.798 527.399 305.097 528.701 306.7 528.701Z" fill="#6DE0F6"/>
<path d="M306.7 527.601C306.026 527.601 305.372 527.366 304.852 526.935C304.333 526.505 303.978 525.906 303.851 525.242C303.834 525.419 303.834 525.597 303.851 525.774C303.82 526.174 303.871 526.576 304.003 526.955C304.134 527.334 304.342 527.682 304.614 527.976C304.885 528.271 305.215 528.506 305.581 528.667C305.948 528.827 306.344 528.91 306.744 528.91C307.144 528.91 307.54 528.827 307.907 528.667C308.274 528.506 308.603 528.271 308.875 527.976C309.147 527.682 309.354 527.334 309.486 526.955C309.617 526.576 309.669 526.174 309.637 525.774C309.655 525.597 309.655 525.419 309.637 525.242C309.507 525.921 309.14 526.532 308.602 526.964C308.064 527.396 307.389 527.622 306.7 527.601Z" fill="#267FE5"/>
<path d="M306.7 547.717C308.303 547.717 309.602 546.415 309.602 544.808C309.602 543.201 308.303 541.899 306.7 541.899C305.097 541.899 303.798 543.201 303.798 544.808C303.798 546.415 305.097 547.717 306.7 547.717Z" fill="#6DE0F6"/>
<path d="M306.7 546.617C306.025 546.621 305.37 546.386 304.849 545.955C304.328 545.524 303.975 544.923 303.851 544.258C303.762 544.682 303.769 545.12 303.87 545.54C303.972 545.961 304.166 546.353 304.438 546.689C304.71 547.025 305.054 547.296 305.443 547.482C305.833 547.668 306.259 547.765 306.691 547.765C307.123 547.765 307.549 547.668 307.939 547.482C308.329 547.296 308.672 547.025 308.944 546.689C309.216 546.353 309.41 545.961 309.512 545.54C309.613 545.12 309.62 544.682 309.531 544.258C309.408 544.92 309.057 545.519 308.54 545.949C308.023 546.38 307.372 546.616 306.7 546.617Z" fill="#267FE5"/>
<path d="M265.292 516.976C264.668 516.947 264.06 516.764 263.523 516.444L259.205 513.943C257.915 513.013 256.86 511.795 256.123 510.384C255.385 508.974 254.987 507.411 254.958 505.819V389.027C254.888 388.331 254.999 387.628 255.282 386.987C255.564 386.347 256.007 385.791 256.568 385.373C257.054 385.13 257.595 385.022 258.137 385.059C258.678 385.097 259.2 385.279 259.647 385.586L263.965 388.087C265.26 389.013 266.32 390.23 267.061 391.641C267.801 393.052 268.202 394.617 268.23 396.212V512.985C268.299 513.686 268.186 514.393 267.9 515.037C267.615 515.681 267.167 516.239 266.602 516.657C266.203 516.882 265.75 516.992 265.292 516.976ZM257.771 385.923C257.486 385.92 257.205 385.993 256.957 386.136C256.529 386.476 256.195 386.92 255.988 387.426C255.78 387.933 255.706 388.484 255.772 389.027V505.819C255.792 507.259 256.149 508.675 256.812 509.954C257.476 511.232 258.429 512.337 259.594 513.18L263.912 515.681C264.229 515.909 264.601 516.049 264.989 516.086C265.378 516.124 265.769 516.057 266.124 515.894C266.548 515.547 266.877 515.099 267.081 514.59C267.286 514.081 267.358 513.529 267.292 512.985V396.212C267.271 394.771 266.915 393.355 266.251 392.077C265.588 390.798 264.635 389.693 263.469 388.85L259.152 386.349C258.737 386.087 258.261 385.94 257.771 385.923Z" fill="#161242"/>
<path d="M193.448 476.018C192.823 475.993 192.214 475.81 191.679 475.485L187.361 472.984C186.066 472.058 185.006 470.841 184.265 469.43C183.525 468.019 183.124 466.454 183.096 464.86V348.087C183.023 347.387 183.133 346.681 183.415 346.037C183.698 345.393 184.143 344.834 184.707 344.415C185.195 344.172 185.74 344.064 186.284 344.101C186.828 344.139 187.352 344.32 187.803 344.628L192.121 347.129C193.411 348.059 194.466 349.277 195.203 350.687C195.94 352.098 196.339 353.661 196.368 355.253V472.044C196.438 472.741 196.327 473.444 196.044 474.084C195.762 474.725 195.319 475.281 194.758 475.698C194.357 475.918 193.905 476.028 193.448 476.018ZM187.75 472.222L192.068 474.723C192.382 474.949 192.751 475.088 193.136 475.125C193.522 475.163 193.91 475.097 194.262 474.936C194.688 474.594 195.02 474.149 195.227 473.643C195.435 473.138 195.511 472.587 195.448 472.044V355.253C195.427 353.812 195.071 352.396 194.407 351.118C193.744 349.84 192.791 348.735 191.626 347.892L187.308 345.39C186.991 345.163 186.619 345.023 186.23 344.985C185.842 344.948 185.451 345.014 185.096 345.178C184.672 345.524 184.343 345.973 184.138 346.481C183.934 346.99 183.862 347.542 183.928 348.087V464.86C183.948 466.301 184.305 467.717 184.968 468.995C185.632 470.273 186.585 471.378 187.75 472.222Z" fill="#161242"/>
<path d="M229.37 496.559C228.742 496.536 228.131 496.347 227.6 496.009L223.283 493.508C221.988 492.586 220.928 491.372 220.187 489.964C219.447 488.556 219.046 486.993 219.018 485.401V368.557C218.946 367.858 219.059 367.153 219.345 366.512C219.63 365.87 220.079 365.316 220.646 364.903C221.13 364.652 221.672 364.54 222.215 364.577C222.758 364.615 223.281 364.801 223.725 365.116L228.043 367.617C229.335 368.54 230.393 369.754 231.13 371.163C231.868 372.571 232.265 374.133 232.29 375.723V492.514C232.365 493.212 232.256 493.917 231.974 494.558C231.691 495.2 231.244 495.755 230.679 496.169C230.291 496.426 229.835 496.561 229.37 496.559ZM221.849 365.506C221.564 365.501 221.282 365.574 221.035 365.719C220.606 366.057 220.271 366.501 220.063 367.008C219.855 367.515 219.782 368.067 219.85 368.61V485.401C219.869 486.84 220.225 488.254 220.889 489.529C221.552 490.805 222.506 491.906 223.672 492.745L227.99 495.246C228.304 495.473 228.673 495.612 229.058 495.649C229.444 495.686 229.832 495.621 230.184 495.459C230.614 495.121 230.949 494.676 231.156 494.17C231.364 493.663 231.438 493.111 231.37 492.568V375.723C231.351 374.285 230.995 372.871 230.331 371.595C229.667 370.32 228.714 369.218 227.547 368.38L223.23 365.878C222.814 365.619 222.339 365.472 221.849 365.453V365.506Z" fill="#161242"/>
<path opacity="0.5" d="M420.925 266.773L416.855 289.017L438.019 276.83L420.925 266.773Z" fill="#13113D"/>
<path d="M309.726 159.294L304.789 162.168L309.726 167.809V209.672C309.726 218.807 315.264 229.415 322.113 233.371L412.962 285.966L413.245 286.108L416.182 289.46L420.801 286.764L420.995 286.64L421.42 286.392C423.844 284.777 425.366 281.372 425.366 276.6V226.222L309.726 159.294Z" fill="url(#paint6_linear_1046_42)"/>
<path d="M304.789 162.168L420.411 229.078V279.456C420.411 288.591 414.873 292.795 408.025 288.84L317.175 236.245C310.327 232.289 304.789 221.681 304.789 212.528V162.168Z" fill="#6DE0F6"/>
<path opacity="0.5" d="M302.081 358.003L279.944 370.916L180.601 313.425L201.181 301.576L302.081 358.003Z" fill="#38025B"/>
<path style="mix-blend-mode:lighten" d="M421 142H195V315.389H195.143C194.624 317.263 196.056 319.101 199.601 320.431L295.647 356.284C302.468 358.829 314.391 358.505 322.286 355.567L414.484 321.183C418.888 319.529 421.018 317.424 420.911 315.4H421V142Z" fill="url(#paint7_linear_1046_42)"/>
<path d="M197.129 227.216L192.192 230.089L197.129 235.73V277.593C197.129 286.729 202.668 297.336 209.516 301.292L300.365 353.887L300.648 354.029L303.586 357.382L308.204 354.685L308.381 354.561L308.823 354.313C311.248 352.699 312.77 349.293 312.77 344.521V294.143L197.129 227.216Z" fill="url(#paint8_linear_1046_42)"/>
<path d="M192.192 230.089L307.815 296.999V347.377C307.815 356.512 302.258 360.717 295.428 356.761L204.579 304.166C197.731 300.21 192.192 289.602 192.192 280.467V230.089Z" fill="url(#paint9_linear_1046_42)"/>
<path opacity="0.5" d="M438.355 277.026L420.925 266.773L438.355 277.026Z" fill="#38025B"/>
<mask id="mask0_1046_42" style="mask-type:alpha" maskUnits="userSpaceOnUse" x="205" y="0" width="177" height="177">
<path d="M340.143 131.998C338.782 133.489 337.351 134.912 335.852 136.267L338.02 138.436C339.514 137.073 340.943 135.649 342.307 134.163L340.143 131.998Z" fill="black"/>
<path d="M338.018 138.436C327.963 147.606 315.326 153.449 301.83 155.17L293.409 176.912L285 155.186C271.459 153.484 258.775 147.633 248.688 138.436L252.983 134.146C264.065 144.122 278.445 149.641 293.353 149.641C308.26 149.641 322.64 144.122 333.723 134.146L338.018 138.436Z" fill="black"/>
<path d="M381.819 88.4561L359.293 97.1806C357.65 110.986 351.707 123.924 342.305 134.163L338.018 129.873C348.077 118.796 353.667 104.377 353.703 89.4103C353.738 74.4441 348.218 59.9979 338.212 48.873L342.499 44.5835C351.4 54.3544 357.171 66.5682 359.071 79.6509L381.819 88.4561Z" fill="black"/>
<path d="M338.229 40.2859L333.941 44.5754C322.834 34.4756 308.363 28.8795 293.354 28.8795C278.344 28.8795 263.873 34.4756 252.766 44.5754L248.479 40.2859C258.432 31.1353 270.946 25.2521 284.339 23.4267L293.41 0L302.481 23.4267C315.835 25.2742 328.306 31.156 338.229 40.2859Z" fill="black"/>
<path d="M268.296 118.818L248.688 138.436C247.194 137.073 245.765 135.649 244.401 134.163L264 114.553C265.318 116.085 266.755 117.511 268.296 118.818Z" fill="black"/>
<path d="M264.001 114.553L259.698 118.858C252.544 110.714 248.583 100.251 248.549 89.4087C248.514 78.5662 252.407 68.0784 259.508 59.8877L261.668 62.0486L263.815 64.1974C257.834 71.2323 254.565 80.1757 254.599 89.4115C254.633 98.6473 257.968 107.566 264.001 114.557V114.553Z" fill="black"/>
<path d="M338.164 89.2639C338.182 100.16 334.214 110.687 327.01 118.858L322.707 114.553C328.739 107.562 332.074 98.6431 332.108 89.4073C332.142 80.1716 328.873 71.2282 322.892 64.1933L325.04 62.0445L327.2 59.8835C334.284 68.0287 338.18 78.4663 338.164 89.2639Z" fill="black"/>
<path d="M322.933 55.59L320.777 57.7589L318.629 59.9077C311.605 53.8394 302.634 50.5005 293.354 50.5005C284.073 50.5005 275.103 53.8394 268.078 59.9077L265.931 57.7589L263.775 55.6021C271.953 48.4121 282.467 44.4468 293.354 44.4468C304.241 44.4468 314.755 48.4121 322.933 55.6021V55.59Z" fill="black"/>
<path d="M268.077 59.8959C266.546 61.2146 265.121 62.6515 263.814 64.1935L261.666 62.0447L259.507 59.8838L248.494 48.8732L244.207 44.5837C245.568 43.0892 246.992 41.6594 248.478 40.2942L252.765 44.5837L263.774 55.5983L265.93 57.7552L268.077 59.8959Z" fill="black"/>
<path d="M340.143 131.998C338.781 133.489 337.351 134.912 335.852 136.267L318.412 118.818C319.953 117.511 321.389 116.085 322.707 114.553L340.143 131.998Z" fill="black"/>
<path d="M342.307 134.163C340.943 135.649 339.514 137.073 338.02 138.436L335.852 136.267C337.351 134.921 338.782 133.497 340.143 131.998L342.307 134.163Z" fill="black"/>
<path d="M342.5 44.5756L338.212 48.8732L327.199 59.8919L325.04 62.0528L322.892 64.2016C321.586 62.6596 320.16 61.2227 318.629 59.904L320.777 57.7552L322.932 55.5983L333.941 44.5837L338.228 40.2942C339.714 41.654 341.138 43.0812 342.5 44.5756Z" fill="black"/>
<path d="M339.664 34.7443L348.618 43.707L355.707 27.6516L339.664 34.7443Z" fill="black"/>
<path d="M247.433 144.212L238.479 135.249L231.39 151.304L247.433 144.212Z" fill="black"/>
<path d="M339.664 144.212L348.618 135.249L355.707 151.304L339.664 144.212Z" fill="black"/>
<path d="M247.433 34.7443L238.479 43.707L231.39 27.6516L247.433 34.7443Z" fill="black"/>
<path d="M248.688 129.873L244.401 134.162C234.986 123.915 229.04 110.959 227.409 97.1359L205 88.4559L227.631 79.6911C229.524 66.5911 235.298 54.3595 244.207 44.5752L248.494 48.8728C238.486 59.9981 232.964 74.4461 233 89.4142C233.036 104.382 238.627 118.804 248.688 129.881V129.873Z" fill="black"/>
<path d="M322.72 123.128C314.57 130.201 304.144 134.096 293.355 134.096C282.566 134.096 272.139 130.201 263.99 123.128L268.297 118.818C270.841 120.98 273.653 122.805 276.662 124.251L287.913 100.945C285.417 99.7385 283.392 97.7369 282.155 95.2544C280.919 92.7718 280.542 89.9488 281.082 87.2284C281.623 84.5081 283.051 82.0443 285.142 80.2238C287.234 78.4033 289.87 77.3291 292.638 77.1698C295.406 77.0106 298.148 77.7752 300.434 79.3438C302.72 80.9124 304.421 83.1961 305.27 85.8366C306.119 88.477 306.067 91.3247 305.124 93.9327C304.18 96.5407 302.398 98.7614 300.056 100.246L313.915 122.118C315.491 121.126 316.993 120.023 318.412 118.818L322.72 123.128Z" fill="black"/>
</mask>
<g mask="url(#mask0_1046_42)">
<path d="M427.032 89.2627L293.409 -44.4299L159.786 89.2627L293.409 222.955L427.032 89.2627Z" fill="url(#paint10_linear_1046_42)"/>
<path d="M427.032 89.2627L293.409 -44.4299L159.786 89.2627L293.409 222.955L427.032 89.2627Z" fill="url(#paint11_linear_1046_42)" fill-opacity="0.5"/>
</g>
<defs>
<linearGradient id="paint0_linear_1046_42" x1="70.9988" y1="460.656" x2="12.0214" y2="519.491" gradientUnits="userSpaceOnUse">
<stop stop-color="#D4088C"/>
<stop offset="0.04" stop-color="#CC088C"/>
<stop offset="0.46" stop-color="#85078A"/>
<stop offset="0.76" stop-color="#590689"/>
<stop offset="0.91" stop-color="#480689"/>
</linearGradient>
<linearGradient id="paint1_linear_1046_42" x1="112.685" y1="195.481" x2="78.232" y2="195.481" gradientUnits="userSpaceOnUse">
<stop stop-color="#6EE8FC"/>
<stop offset="0.16" stop-color="#6AE2FB"/>
<stop offset="0.37" stop-color="#5ED1F7"/>
<stop offset="0.61" stop-color="#4BB5F1"/>
<stop offset="0.87" stop-color="#308EE8"/>
<stop offset="0.96" stop-color="#267FE5"/>
</linearGradient>
<linearGradient id="paint2_linear_1046_42" x1="557.74" y1="348.164" x2="627.186" y2="382.584" gradientUnits="userSpaceOnUse">
<stop stop-color="#6EE8FC"/>
<stop offset="0.16" stop-color="#6AE2FB"/>
<stop offset="0.37" stop-color="#5ED1F7"/>
<stop offset="0.61" stop-color="#4BB5F1"/>
<stop offset="0.87" stop-color="#308EE8"/>
<stop offset="0.96" stop-color="#267FE5"/>
</linearGradient>
<linearGradient id="paint3_linear_1046_42" x1="114.172" y1="506.759" x2="499.21" y2="506.759" gradientUnits="userSpaceOnUse">
<stop stop-color="#D4088C"/>
<stop offset="0.23" stop-color="#8D139B"/>
<stop offset="0.51" stop-color="#6EE1F8"/>
<stop offset="0.78" stop-color="#6EE8FC"/>
<stop offset="1" stop-color="#6EE8FC"/>
</linearGradient>
<linearGradient id="paint4_linear_1046_42" x1="128.275" y1="403.644" x2="493.866" y2="403.644" gradientUnits="userSpaceOnUse">
<stop stop-color="#A31FA9"/>
<stop offset="0.07" stop-color="#8B17A0"/>
<stop offset="0.15" stop-color="#740F98"/>
<stop offset="0.24" stop-color="#640A92"/>
<stop offset="0.34" stop-color="#5B078F"/>
<stop offset="0.48" stop-color="#58068E"/>
<stop offset="0.63" stop-color="#4D22A3"/>
<stop offset="0.94" stop-color="#3168DA"/>
<stop offset="1" stop-color="#2C75E4"/>
</linearGradient>
<linearGradient id="paint5_linear_1046_42" x1="157.754" y1="297.062" x2="440.38" y2="365.667" gradientUnits="userSpaceOnUse">
<stop stop-color="#8D139B"/>
<stop offset="0.17" stop-color="#851BA1"/>
<stop offset="0.43" stop-color="#6E33B2"/>
<stop offset="0.76" stop-color="#4958CD"/>
<stop offset="1" stop-color="#2979E4"/>
</linearGradient>
<linearGradient id="paint6_linear_1046_42" x1="176.796" y1="181.485" x2="425.781" y2="238.57" gradientUnits="userSpaceOnUse">
<stop stop-color="#8D139B"/>
<stop offset="0.17" stop-color="#851BA1"/>
<stop offset="0.43" stop-color="#6E33B2"/>
<stop offset="0.76" stop-color="#4958CD"/>
<stop offset="1" stop-color="#2979E4"/>
</linearGradient>
<linearGradient id="paint7_linear_1046_42" x1="308" y1="357.973" x2="308" y2="142" gradientUnits="userSpaceOnUse">
<stop stop-color="#520689" stop-opacity="0"/>
<stop offset="0.61" stop-color="#70078A" stop-opacity="0.53"/>
<stop offset="1" stop-color="#B8088C" stop-opacity="0"/>
</linearGradient>
<linearGradient id="paint8_linear_1046_42" x1="64.1997" y1="249.407" x2="313.184" y2="306.491" gradientUnits="userSpaceOnUse">
<stop stop-color="#8D139B"/>
<stop offset="0.17" stop-color="#851BA1"/>
<stop offset="0.43" stop-color="#6E33B2"/>
<stop offset="0.76" stop-color="#4958CD"/>
<stop offset="1" stop-color="#2979E4"/>
</linearGradient>
<linearGradient id="paint9_linear_1046_42" x1="153.196" y1="289.984" x2="367.16" y2="230.731" gradientUnits="userSpaceOnUse">
<stop stop-color="#8D139B"/>
<stop offset="0.17" stop-color="#851BA1"/>
<stop offset="0.43" stop-color="#6E33B2"/>
<stop offset="0.76" stop-color="#4958CD"/>
<stop offset="1" stop-color="#2979E4"/>
</linearGradient>
<linearGradient id="paint10_linear_1046_42" x1="226.595" y1="22.4135" x2="360.29" y2="156.039" gradientUnits="userSpaceOnUse">
<stop offset="0.453125" stop-color="#6838EC"/>
<stop offset="1" stop-color="#570A57"/>
</linearGradient>
<linearGradient id="paint11_linear_1046_42" x1="226.595" y1="22.4135" x2="360.29" y2="156.039" gradientUnits="userSpaceOnUse">
<stop stop-color="#6838EC"/>
<stop offset="1" stop-color="#E94560"/>
</linearGradient>
</defs>
</svg>
