<svg width="43" height="52" viewBox="0 0 43 52" fill="none" xmlns="http://www.w3.org/2000/svg">
<path fill-rule="evenodd" clip-rule="evenodd" d="M13.1477 3.39821C8.59953 5.27671 4.87016 6.8218 4.8602 6.83171C4.85029 6.84167 5.1597 6.99093 5.54786 7.16338C9.464 8.90362 12.8837 11.1939 15.5731 13.8775C17.5531 15.8533 19.0624 17.9176 20.2244 20.2395C20.6031 20.9961 21.1496 22.2609 21.3161 22.7661C21.364 22.9116 21.4192 23.0119 21.4387 22.9891C21.4581 22.9662 21.5593 22.7133 21.6634 22.4271C22.9519 18.8872 25.4352 15.3893 28.6471 12.5903C31.0221 10.5207 34.1796 8.54148 37.2681 7.18647C37.6924 7.00025 38.0348 6.84336 38.0287 6.83776C38.0174 6.82735 21.5562 0.0312632 21.4667 4.41598e-05C21.4394 -0.00947022 17.6958 1.51967 13.1477 3.39821ZM0.678788 8.54361L0.108918 8.77993L0.0770546 9.07478C0.000691995 9.78097 -0.0260672 12.2955 0.0296314 13.5322C0.35966 20.8616 2.10237 27.7225 5.16515 33.7502C8.53219 40.3769 13.291 45.7166 19.5341 49.8732C20.0519 50.218 20.6912 50.6301 20.9547 50.789L21.4338 51.078L22.2886 50.5435C26.7954 47.725 30.6984 44.1524 33.8137 39.994C39.1813 32.8291 42.2751 23.8427 42.8044 13.879C42.8598 12.8369 42.8354 9.4499 42.7691 8.97319L42.7416 8.77497L42.1761 8.54291L41.6106 8.3109L41.0529 8.5C39.7076 8.95629 37.4395 9.93157 36.4681 10.4715L36.2069 10.6167L36.6324 10.8767C38.4878 12.0105 40.0093 13.9483 40.7213 16.0842C42.2595 20.699 40.1208 25.7837 35.7382 27.9313C34.3572 28.608 32.9954 28.9187 31.4099 28.9187C29.1747 28.9187 27.0635 28.1692 25.3063 26.752C24.8848 26.4121 23.9693 25.4816 23.7458 25.166C23.6642 25.0508 23.5861 24.956 23.5722 24.9554C23.5583 24.9549 23.4949 25.1161 23.4312 25.3136C23.3675 25.5112 23.0512 26.3433 22.7281 27.1626C21.9023 29.2577 21.635 30.1017 21.4501 31.1982C21.4149 31.4066 21.4027 31.4317 21.3982 31.3051C21.3746 30.6412 20.9764 29.3513 20.1413 27.2339C19.8135 26.4026 19.486 25.5471 19.4135 25.3328L19.2818 24.9431L18.9895 25.308C18.5568 25.8483 17.8484 26.5288 17.255 26.9743C15.5487 28.2555 13.5541 28.9187 11.4072 28.9187C9.46757 28.9187 7.68135 28.391 6.08016 27.345C2.68453 25.1266 1.00931 21.0842 1.84514 17.1255C2.37611 14.6108 3.89087 12.4078 6.08016 10.9665C6.36634 10.778 6.6096 10.6151 6.6207 10.6042C6.6534 10.5724 4.89003 9.73067 3.94935 9.32914C3.25772 9.03395 1.32884 8.29896 1.26343 8.30575C1.2553 8.30659 0.992216 8.41363 0.678788 8.54361ZM9.02862 12.4109C8.03185 12.7637 7.1422 13.3332 6.35103 14.1248C5.31565 15.1608 4.70311 16.2991 4.39003 17.769C4.23131 18.5143 4.23131 19.7987 4.39003 20.5441C4.80747 22.5047 5.93755 24.15 7.59641 25.2122C8.22867 25.6171 9.17149 25.9956 9.99492 26.175C10.5969 26.3063 12.2181 26.3063 12.8175 26.1751C14.4675 25.814 15.9475 24.9116 16.9586 23.6501C17.3331 23.1829 17.7564 22.4921 17.9456 22.0393L18.0767 21.7257L17.7454 21.0977C17.2266 20.1145 16.1592 18.4132 16.0611 18.4132C16.0478 18.4132 16.0517 18.6086 16.0697 18.8474C16.1258 19.5911 15.9363 20.5595 15.6067 21.213C15.2863 21.8482 14.6892 22.5499 14.1253 22.9537C13.7455 23.2258 13.0042 23.5749 12.5469 23.6971C12.0472 23.8307 10.7584 23.8293 10.2675 23.6947C9.43363 23.4661 8.77609 23.094 8.16842 22.5068C7.52179 21.8822 7.10048 21.1667 6.86668 20.2963C6.70439 19.6919 6.7042 18.6223 6.86639 18.0168C6.99706 17.5288 7.32699 16.8124 7.58531 16.4559C8.07625 15.7781 8.90132 15.1274 9.65954 14.8198C10.3004 14.5599 10.7782 14.4831 11.5732 14.5124C11.9452 14.5261 12.3054 14.5524 12.3735 14.571C12.4774 14.5992 12.4614 14.5711 12.2744 14.3968C11.8028 13.9572 9.56281 12.2711 9.44983 12.2706C9.4362 12.2705 9.24666 12.3336 9.02862 12.4109ZM32.7216 12.7359C32.0827 13.1776 30.9756 14.0309 30.535 14.4214L30.3368 14.597L30.5598 14.5601C30.6824 14.5398 31.1284 14.5253 31.5509 14.5278C32.2331 14.5319 32.3677 14.5471 32.7549 14.6645C33.8321 14.9911 34.746 15.6717 35.3548 16.6005C35.9095 17.4468 36.135 18.2785 36.0949 19.33C36.0653 20.1047 35.9504 20.5787 35.6381 21.213C35.0612 22.3853 33.9542 23.3073 32.6906 23.6681C32.2131 23.8044 31.2107 23.8532 30.6702 23.7664C29.4563 23.5714 28.2512 22.7967 27.5785 21.7789C26.9823 20.877 26.6887 19.7525 26.7901 18.7601C26.811 18.5557 26.8236 18.3825 26.8182 18.3751C26.7997 18.3502 26.0618 19.427 25.7841 19.8841C25.4886 20.3703 25.0548 21.1651 24.8786 21.5425L24.7712 21.7729L25.0268 22.2877C25.488 23.2168 26.0854 23.9834 26.8433 24.6183C27.8773 25.4848 29.0407 26.013 30.3841 26.2262C30.9954 26.3232 32.3254 26.2927 32.8888 26.1687C34.2324 25.8732 35.4089 25.2466 36.3756 24.312C37.4515 23.2717 38.1259 22.0667 38.4507 20.6042C38.5955 19.9526 38.6073 18.465 38.4731 17.8018C38.0587 15.7543 36.7693 13.9699 34.9453 12.9199C34.6447 12.7469 33.817 12.3894 33.5037 12.2973C33.4259 12.2744 33.2312 12.3836 32.7216 12.7359ZM11.1305 17.1292C10.5833 17.1892 9.99522 17.553 9.69879 18.015C8.81281 19.3956 9.76256 21.1931 11.3777 21.1925C11.8493 21.1923 12.1834 21.0933 12.5543 20.8436C13.6216 20.1254 13.7658 18.621 12.8548 17.71C12.4107 17.2659 11.7904 17.0569 11.1305 17.1292ZM31.1297 17.1315C30.5101 17.2182 29.8523 17.7087 29.5934 18.2768C29.1183 19.3195 29.5538 20.5113 30.597 21.0236C30.8594 21.1524 30.9268 21.1635 31.4518 21.1635C31.9718 21.1635 32.0456 21.1517 32.296 21.0286C33.0536 20.6562 33.4835 19.9784 33.4835 19.1565C33.4835 18.7166 33.3677 18.3324 33.13 17.9841C32.8448 17.5662 32.2958 17.2098 31.8423 17.1481C31.7229 17.1319 31.5806 17.1121 31.5261 17.1042C31.4716 17.0963 31.2932 17.1086 31.1297 17.1315ZM18.4868 29.7319C18.6107 29.9611 19.0065 30.6245 19.3664 31.2062C20.6473 33.2762 20.9649 33.8055 21.197 34.2568L21.4321 34.7139L21.603 34.3559C21.7807 33.9838 22.2616 33.1765 23.4839 31.1982C23.8796 30.5577 24.2871 29.8735 24.3894 29.6777L24.5754 29.3218L24.9537 29.5574C26.4726 30.504 28.2149 31.1192 30.0395 31.3532C30.8256 31.454 32.385 31.4299 33.2109 31.3042C34.2838 31.1408 35.7622 30.7141 36.4029 30.3827C36.4921 30.3366 36.5735 30.3074 36.5839 30.3178C36.6146 30.3485 35.8533 31.9787 35.4146 32.8218C32.2786 38.8483 27.908 43.7487 22.2405 47.5927L21.4287 48.1434L20.6548 47.6173C17.3403 45.3638 14.512 42.784 12.0528 39.771C10.0819 37.3564 8.24617 34.4268 6.88219 31.5195C6.28135 30.2389 6.29543 30.3275 6.72105 30.503C8.23219 31.1262 9.7082 31.4128 11.4072 31.4131C13.3572 31.4135 15.042 31.021 16.8086 30.1549C17.1902 29.9679 17.6696 29.7042 17.874 29.5691C18.0784 29.4339 18.2492 29.3215 18.2535 29.3192C18.2579 29.317 18.3628 29.5027 18.4868 29.7319ZM21.0702 35.6111C19.6677 35.8519 18.7856 37.1975 19.1395 38.5562C19.3135 39.2242 19.8692 39.8673 20.4856 40.114L20.6443 40.1775L19.6802 42.1051L18.7162 44.0327H21.417C22.9024 44.0327 24.1178 44.0214 24.1178 44.0077C24.1178 43.9939 23.6941 43.1355 23.1763 42.1001C22.6584 41.0647 22.2347 40.2089 22.2347 40.1983C22.2347 40.1877 22.3596 40.118 22.5122 40.0433C22.9302 39.8389 23.3385 39.4111 23.559 38.9468C23.7246 38.5982 23.7456 38.5085 23.7629 38.0771C23.7938 37.3085 23.5711 36.7326 23.05 36.2334C22.536 35.7408 21.7512 35.4942 21.0702 35.6111Z" fill="white"/>
</svg>
