<svg width="41" height="40" viewBox="0 0 41 40" fill="none" xmlns="http://www.w3.org/2000/svg">
<path fill-rule="evenodd" clip-rule="evenodd" d="M12.3132 0.466906C14.4087 0.370437 15.0768 0.348999 20.4148 0.348999C25.7528 0.348999 26.4209 0.372223 28.5147 0.466906C30.6084 0.561589 32.0376 0.895658 33.2881 1.37979C34.5976 1.87464 35.7856 2.64818 36.7681 3.6486C37.7686 4.62937 38.5403 5.81559 39.0334 7.12686C39.5193 8.37738 39.8516 9.80656 39.948 11.8967C40.0445 13.9958 40.066 14.664 40.066 20.0001C40.066 25.3381 40.0427 26.0062 39.948 28.1018C39.8534 30.1919 39.5193 31.6211 39.0334 32.8716C38.5403 34.1831 37.7673 35.3713 36.7681 36.3535C35.7856 37.3539 34.5976 38.1256 33.2881 38.6187C32.0376 39.1046 30.6084 39.4369 28.5182 39.5334C26.4209 39.6298 25.7528 39.6513 20.4148 39.6513C15.0768 39.6513 14.4087 39.6281 12.3132 39.5334C10.223 39.4387 8.79384 39.1046 7.54332 38.6187C6.23191 38.1256 5.04373 37.3526 4.06149 36.3535C3.06175 35.3721 2.28809 34.1845 1.79446 32.8734C1.31033 31.6229 0.978048 30.1937 0.881579 28.1036C0.785109 26.0045 0.763672 25.3363 0.763672 20.0001C0.763672 14.6622 0.786896 13.994 0.881579 11.9003C0.976261 9.80656 1.31033 8.37738 1.79446 7.12686C2.28882 5.81573 3.06307 4.62815 4.06328 3.64682C5.04412 2.64729 6.23111 1.87365 7.54153 1.37979C8.79206 0.895658 10.2212 0.563375 12.3114 0.466906H12.3132ZM28.3557 4.00411C26.2834 3.90943 25.6617 3.88978 20.4148 3.88978C15.168 3.88978 14.5463 3.90943 12.474 4.00411C10.5571 4.09165 9.51736 4.41143 8.82421 4.68118C7.90775 5.03848 7.25212 5.46187 6.56433 6.14966C5.91235 6.78395 5.4106 7.55611 5.09586 8.40954C4.8261 9.10269 4.50632 10.1424 4.41878 12.0593C4.3241 14.1316 4.30445 14.7533 4.30445 20.0001C4.30445 25.247 4.3241 25.8687 4.41878 27.941C4.50632 29.8579 4.8261 30.8976 5.09586 31.5907C5.41027 32.4429 5.91227 33.2164 6.56433 33.8506C7.19853 34.5027 7.97207 35.0047 8.82421 35.3191C9.51736 35.5889 10.5571 35.9086 12.474 35.9962C14.5463 36.0909 15.1662 36.1105 20.4148 36.1105C25.6635 36.1105 26.2834 36.0909 28.3557 35.9962C30.2725 35.9086 31.3123 35.5889 32.0054 35.3191C32.9219 34.9618 33.5775 34.5384 34.2653 33.8506C34.9174 33.2164 35.4194 32.4429 35.7338 31.5907C36.0035 30.8976 36.3233 29.8579 36.4108 27.941C36.5055 25.8687 36.5252 25.247 36.5252 20.0001C36.5252 14.7533 36.5055 14.1316 36.4108 12.0593C36.3233 10.1424 36.0035 9.10269 35.7338 8.40954C35.3765 7.49308 34.9531 6.83745 34.2653 6.14966C33.631 5.49773 32.8588 4.99598 32.0054 4.68118C31.3123 4.41143 30.2725 4.09165 28.3557 4.00411V4.00411ZM17.9048 26.058C19.3066 26.6416 20.8675 26.7203 22.3208 26.2809C23.7742 25.8414 25.03 24.911 25.8736 23.6485C26.7172 22.3861 27.0963 20.8699 26.9462 19.359C26.7961 17.8481 26.1262 16.4361 25.0507 15.3643C24.3651 14.6791 23.5361 14.1545 22.6235 13.8282C21.7108 13.5018 20.7371 13.3819 19.7726 13.4771C18.808 13.5722 17.8765 13.88 17.0452 14.3784C16.2139 14.8767 15.5034 15.5532 14.9648 16.3591C14.4263 17.1649 14.0732 18.0802 13.9309 19.039C13.7885 19.9977 13.8605 20.9761 14.1417 21.9036C14.4229 22.8312 14.9062 23.6849 15.5569 24.4033C16.2076 25.1216 17.0095 25.6868 17.9048 26.058ZM13.2725 12.8578C14.2105 11.9199 15.324 11.1759 16.5494 10.6683C17.7749 10.1607 19.0884 9.89941 20.4148 9.89941C21.7413 9.89941 23.0547 10.1607 24.2802 10.6683C25.5057 11.1759 26.6192 11.9199 27.5571 12.8578C28.495 13.7958 29.2391 14.9093 29.7467 16.1348C30.2543 17.3602 30.5155 18.6737 30.5155 20.0001C30.5155 21.3266 30.2543 22.64 29.7467 23.8655C29.2391 25.091 28.495 26.2045 27.5571 27.1424C25.6629 29.0367 23.0937 30.1009 20.4148 30.1009C17.7359 30.1009 15.1668 29.0367 13.2725 27.1424C11.3783 25.2482 10.3141 22.679 10.3141 20.0001C10.3141 17.3213 11.3783 14.7521 13.2725 12.8578V12.8578ZM32.7557 11.4037C32.9882 11.1844 33.1742 10.9207 33.3029 10.6283C33.4316 10.3358 33.5003 10.0205 33.505 9.70103C33.5097 9.38154 33.4502 9.06436 33.33 8.76828C33.2099 8.4722 33.0316 8.20322 32.8057 7.97728C32.5797 7.75135 32.3108 7.57304 32.0147 7.45292C31.7186 7.3328 31.4014 7.2733 31.0819 7.27796C30.7624 7.28262 30.4471 7.35133 30.1547 7.48003C29.8622 7.60874 29.5986 7.79481 29.3793 8.02724C28.9529 8.47926 28.7194 9.07968 28.7285 9.70103C28.7376 10.3224 28.9884 10.9157 29.4278 11.3551C29.8672 11.7946 30.4606 12.0454 31.0819 12.0545C31.7033 12.0635 32.3037 11.8301 32.7557 11.4037V11.4037Z" fill="white"/>
</svg>
