<svg width="40" height="40" viewBox="0 0 40 40" fill="none" xmlns="http://www.w3.org/2000/svg">
<path fill-rule="evenodd" clip-rule="evenodd" d="M11.8981 0.466906C13.9937 0.370437 14.6618 0.348999 19.9998 0.348999C25.3377 0.348999 26.0059 0.372223 28.0996 0.466906C30.1934 0.561589 31.6225 0.895658 32.8731 1.37979C34.1825 1.87464 35.3705 2.64818 36.3531 3.6486C37.3535 4.62937 38.1253 5.81559 38.6183 7.12686C39.1043 8.37738 39.4365 9.80656 39.533 11.8967C39.6295 13.9958 39.6509 14.664 39.6509 20.0001C39.6509 25.3381 39.6277 26.0062 39.533 28.1018C39.4383 30.1919 39.1043 31.6211 38.6183 32.8716C38.1253 34.1831 37.3522 35.3713 36.3531 36.3535C35.3705 37.3539 34.1825 38.1256 32.8731 38.6187C31.6225 39.1046 30.1934 39.4369 28.1032 39.5334C26.0059 39.6298 25.3377 39.6513 19.9998 39.6513C14.6618 39.6513 13.9937 39.6281 11.8981 39.5334C9.80798 39.4387 8.3788 39.1046 7.12828 38.6187C5.81687 38.1256 4.62869 37.3526 3.64645 36.3535C2.64671 35.3721 1.87305 34.1845 1.37942 32.8734C0.895292 31.6229 0.563009 30.1937 0.46654 28.1036C0.37007 26.0045 0.348633 25.3363 0.348633 20.0001C0.348633 14.6622 0.371857 13.994 0.46654 11.9003C0.561222 9.80656 0.895292 8.37738 1.37942 7.12686C1.87378 5.81573 2.64803 4.62815 3.64824 3.64682C4.62908 2.64729 5.81607 1.87365 7.12649 1.37979C8.37702 0.895658 9.80619 0.563375 11.8964 0.466906H11.8981ZM27.9406 4.00411C25.8683 3.90943 25.2466 3.88978 19.9998 3.88978C14.7529 3.88978 14.1312 3.90943 12.0589 4.00411C10.142 4.09165 9.10232 4.41143 8.40917 4.68118C7.49272 5.03848 6.83708 5.46187 6.14929 6.14966C5.49731 6.78395 4.99556 7.55611 4.68082 8.40954C4.41106 9.10269 4.09128 10.1424 4.00374 12.0593C3.90906 14.1316 3.88941 14.7533 3.88941 20.0001C3.88941 25.247 3.90906 25.8687 4.00374 27.941C4.09128 29.8579 4.41106 30.8976 4.68082 31.5907C4.99523 32.4429 5.49723 33.2164 6.14929 33.8506C6.78349 34.5027 7.55703 35.0047 8.40917 35.3191C9.10232 35.5889 10.142 35.9086 12.0589 35.9962C14.1312 36.0909 14.7511 36.1105 19.9998 36.1105C25.2484 36.1105 25.8683 36.0909 27.9406 35.9962C29.8575 35.9086 30.8972 35.5889 31.5904 35.3191C32.5068 34.9618 33.1625 34.5384 33.8503 33.8506C34.5023 33.2164 35.0043 32.4429 35.3187 31.5907C35.5885 30.8976 35.9083 29.8579 35.9958 27.941C36.0905 25.8687 36.1101 25.247 36.1101 20.0001C36.1101 14.7533 36.0905 14.1316 35.9958 12.0593C35.9083 10.1424 35.5885 9.10269 35.3187 8.40954C34.9614 7.49308 34.538 6.83745 33.8503 6.14966C33.2159 5.49773 32.4438 4.99598 31.5904 4.68118C30.8972 4.41143 29.8575 4.09165 27.9406 4.00411ZM17.4898 26.0581C18.8916 26.6416 20.4524 26.7203 21.9058 26.2809C23.3592 25.8414 24.6149 24.911 25.4585 23.6485C26.3021 22.3861 26.6813 20.8699 26.5312 19.359C26.3811 17.8481 25.7111 16.4361 24.6357 15.3643C23.9501 14.6791 23.1211 14.1545 22.2084 13.8282C21.2958 13.5018 20.3221 13.3819 19.3575 13.4771C18.393 13.5722 17.4615 13.88 16.6301 14.3784C15.7988 14.8767 15.0883 15.5532 14.5498 16.3591C14.0113 17.1649 13.6582 18.0802 13.5158 19.0389C13.3735 19.9977 13.4455 20.9761 13.7267 21.9037C14.0078 22.8312 14.4912 23.6849 15.1419 24.4033C15.7926 25.1216 16.5945 25.6868 17.4898 26.0581ZM12.8575 12.8578C13.7954 11.9199 14.9089 11.1759 16.1344 10.6683C17.3599 10.1607 18.6733 9.89941 19.9998 9.89941C21.3262 9.89941 22.6397 10.1607 23.8652 10.6683C25.0906 11.1759 26.2041 11.9199 27.1421 12.8578C28.08 13.7958 28.824 14.9093 29.3316 16.1348C29.8392 17.3602 30.1005 18.6737 30.1005 20.0001C30.1005 21.3266 29.8392 22.64 29.3316 23.8655C28.824 25.091 28.08 26.2045 27.1421 27.1424C25.2478 29.0367 22.6787 30.1009 19.9998 30.1009C17.3209 30.1009 14.7517 29.0367 12.8575 27.1424C10.9632 25.2482 9.89904 22.679 9.89904 20.0001C9.89904 17.3213 10.9632 14.7521 12.8575 12.8578ZM32.3407 11.4037C32.5731 11.1844 32.7592 10.9207 32.8879 10.6283C33.0166 10.3358 33.0853 10.0205 33.09 9.70103C33.0946 9.38154 33.0351 9.06436 32.915 8.76828C32.7949 8.4722 32.6166 8.20322 32.3906 7.97728C32.1647 7.75135 31.8957 7.57304 31.5996 7.45292C31.3036 7.3328 30.9864 7.2733 30.6669 7.27796C30.3474 7.28262 30.0321 7.35133 29.7396 7.48003C29.4472 7.60874 29.1835 7.79481 28.9643 8.02724C28.5379 8.47926 28.3044 9.07968 28.3135 9.70103C28.3225 10.3224 28.5734 10.9157 29.0128 11.3551C29.4522 11.7945 30.0455 12.0454 30.6669 12.0545C31.2882 12.0635 31.8887 11.8301 32.3407 11.4037Z" fill="white"/>
</svg>
