<svg width="42" height="42" viewBox="0 0 42 42" fill="none" xmlns="http://www.w3.org/2000/svg">
<path fill-rule="evenodd" clip-rule="evenodd" d="M14.0319 4.19871C15.8343 4.11573 16.409 4.09729 21.0004 4.09729C25.5918 4.09729 26.1665 4.11727 27.9674 4.19871C29.7683 4.28015 30.9976 4.56749 32.0732 4.98392C33.1995 5.40956 34.2214 6.07491 35.0665 6.93541C35.927 7.77901 36.5908 8.79932 37.015 9.9272C37.4329 11.0028 37.7187 12.2321 37.8017 14.0299C37.8847 15.8355 37.9031 16.4102 37.9031 21C37.9031 25.5914 37.8831 26.1661 37.8017 27.9686C37.7203 29.7664 37.4329 30.9957 37.015 32.0713C36.5908 33.1993 35.9259 34.2213 35.0665 35.0662C34.2214 35.9267 33.1995 36.5905 32.0732 37.0146C30.9976 37.4325 29.7683 37.7184 27.9705 37.8013C26.1665 37.8843 25.5918 37.9027 21.0004 37.9027C16.409 37.9027 15.8343 37.8828 14.0319 37.8013C12.234 37.7199 11.0047 37.4325 9.9291 37.0146C8.8011 36.5904 7.7791 35.9255 6.93424 35.0662C6.07432 34.2221 5.40887 33.2005 4.98428 32.0728C4.56786 30.9972 4.28205 29.7679 4.19907 27.9701C4.1161 26.1646 4.09766 25.5899 4.09766 21C4.09766 16.4086 4.11763 15.8339 4.19907 14.033C4.28051 12.2321 4.56786 11.0028 4.98428 9.9272C5.4095 8.79945 6.07546 7.77796 6.93578 6.93388C7.77944 6.07414 8.80041 5.4087 9.92756 4.98392C11.0032 4.56749 12.2325 4.28168 14.0303 4.19871H14.0319ZM27.8306 7.2412C26.0482 7.15976 25.5134 7.14285 21.0004 7.14285C16.4874 7.14285 15.9526 7.15976 14.1701 7.2412C12.5214 7.31649 11.6271 7.59154 11.0308 7.82357C10.2426 8.1309 9.67863 8.49507 9.08703 9.08667C8.52624 9.63224 8.09466 10.2964 7.82394 11.0305C7.59191 11.6267 7.31686 12.521 7.24156 14.1698C7.16012 15.9522 7.14322 16.487 7.14322 21C7.14322 25.513 7.16012 26.0478 7.24156 27.8303C7.31686 29.479 7.59191 30.3734 7.82394 30.9696C8.09438 31.7025 8.52617 32.3679 9.08703 32.9134C9.63253 33.4742 10.2979 33.906 11.0308 34.1765C11.6271 34.4085 12.5214 34.6835 14.1701 34.7588C15.9526 34.8403 16.4858 34.8572 21.0004 34.8572C25.5149 34.8572 26.0482 34.8403 27.8306 34.7588C29.4794 34.6835 30.3737 34.4085 30.9699 34.1765C31.7582 33.8691 32.3221 33.505 32.9137 32.9134C33.4746 32.3679 33.9064 31.7025 34.1768 30.9696C34.4089 30.3734 34.6839 29.479 34.7592 27.8303C34.8406 26.0478 34.8575 25.513 34.8575 21C34.8575 16.487 34.8406 15.9522 34.7592 14.1698C34.6839 12.521 34.4089 11.6267 34.1768 11.0305C33.8695 10.2422 33.5053 9.67826 32.9137 9.08667C32.3681 8.52591 31.704 8.09434 30.9699 7.82357C30.3737 7.59154 29.4794 7.31649 27.8306 7.2412ZM18.8414 26.2107C20.0472 26.7126 21.3897 26.7803 22.6398 26.4023C23.89 26.0243 24.9701 25.224 25.6957 24.1382C26.4213 23.0523 26.7474 21.7481 26.6183 20.4485C26.4892 19.1489 25.9129 17.9344 24.9879 17.0125C24.3982 16.4232 23.6852 15.9719 22.9001 15.6913C22.1151 15.4106 21.2776 15.3074 20.448 15.3893C19.6183 15.4711 18.8171 15.7359 18.102 16.1645C17.387 16.5931 16.7758 17.175 16.3126 17.8682C15.8494 18.5614 15.5457 19.3486 15.4233 20.1733C15.3009 20.9979 15.3628 21.8395 15.6046 22.6373C15.8465 23.4351 16.2622 24.1694 16.8219 24.7873C17.3816 25.4052 18.0713 25.8913 18.8414 26.2107ZM14.857 14.8566C15.6638 14.0499 16.6215 13.4099 17.6756 12.9733C18.7297 12.5367 19.8595 12.312 21.0004 12.312C22.1413 12.312 23.2711 12.5367 24.3252 12.9733C25.3792 13.4099 26.337 14.0499 27.1438 14.8566C27.9505 15.6634 28.5905 16.6212 29.0271 17.6752C29.4637 18.7293 29.6884 19.8591 29.6884 21C29.6884 22.1409 29.4637 23.2707 29.0271 24.3248C28.5905 25.3789 27.9505 26.3366 27.1438 27.1434C25.5144 28.7727 23.3046 29.6881 21.0004 29.6881C18.6962 29.6881 16.4863 28.7727 14.857 27.1434C13.2277 25.5141 12.3123 23.3042 12.3123 21C12.3123 18.6958 13.2277 16.486 14.857 14.8566ZM31.6153 13.6058C31.8152 13.4173 31.9753 13.1905 32.086 12.9389C32.1967 12.6874 32.2558 12.4162 32.2598 12.1413C32.2638 11.8665 32.2126 11.5937 32.1093 11.339C32.006 11.0844 31.8526 10.853 31.6583 10.6587C31.4639 10.4643 31.2326 10.311 30.9779 10.2077C30.7232 10.1043 30.4504 10.0532 30.1756 10.0572C29.9008 10.0612 29.6296 10.1203 29.378 10.231C29.1265 10.3417 28.8997 10.5017 28.7111 10.7016C28.3443 11.0905 28.1435 11.6069 28.1513 12.1413C28.1591 12.6758 28.3749 13.1862 28.7528 13.5641C29.1308 13.9421 29.6412 14.1578 30.1756 14.1656C30.71 14.1734 31.2265 13.9726 31.6153 13.6058Z" fill="white"/>
</svg>
