<svg width="48" height="35" viewBox="0 0 48 35" fill="none" xmlns="http://www.w3.org/2000/svg">
<path d="M10.5166 31.928C8.52556 31.928 6.75843 31.6045 5.21529 30.9574C3.69709 30.3102 2.48996 29.4142 1.59396 28.2694C0.69796 27.1245 0.18776 25.8302 0.0632935 24.3867H8.01529C8.11489 25.0089 8.37623 25.4694 8.79929 25.768C9.24729 26.0667 9.80729 26.216 10.4793 26.216C10.9024 26.216 11.2384 26.1289 11.4873 25.9547C11.7362 25.7556 11.8606 25.5192 11.8606 25.2454C11.8606 24.7725 11.5993 24.4365 11.0766 24.2374C10.554 24.0382 9.67043 23.8142 8.42596 23.5654C6.90776 23.2667 5.65089 22.9432 4.65529 22.5947C3.68463 22.2462 2.82596 21.6489 2.07929 20.8027C1.35756 19.9565 0.996626 18.7867 0.996626 17.2934C0.996626 15.9992 1.33263 14.8294 2.00463 13.784C2.70156 12.7138 3.72196 11.88 5.06596 11.2827C6.40996 10.6605 8.04023 10.3494 9.95662 10.3494C12.794 10.3494 15.0091 11.0462 16.602 12.44C18.2198 13.8338 19.1904 15.6507 19.514 17.8907H12.1593C12.0349 17.3182 11.7736 16.8827 11.3753 16.584C10.9771 16.2605 10.442 16.0987 9.76996 16.0987C9.34689 16.0987 9.02329 16.1858 8.79929 16.36C8.57529 16.5094 8.46329 16.7458 8.46329 17.0694C8.46329 17.4925 8.72463 17.816 9.24729 18.04C9.76996 18.2392 10.6038 18.4507 11.7486 18.6747C13.2669 18.9734 14.5486 19.3094 15.594 19.6827C16.6393 20.056 17.5478 20.7032 18.3193 21.624C19.0909 22.52 19.4766 23.7645 19.4766 25.3574C19.4766 26.6018 19.1158 27.7218 18.394 28.7174C17.6722 29.7129 16.6269 30.4969 15.258 31.0694C13.914 31.6418 12.3336 31.928 10.5166 31.928Z" fill="white"/>
<path fill-rule="evenodd" clip-rule="evenodd" d="M47.3211 0.333252V34.9999H29.7064V0.333252H47.3211Z" fill="#FF5851"/>
</svg>
