<svg width="31" height="31" viewBox="0 0 31 31" fill="none" xmlns="http://www.w3.org/2000/svg">
<path d="M17.5827 2.54163C17.5827 1.91174 17.3325 1.30765 16.8871 0.862247C16.4417 0.416849 15.8376 0.166626 15.2077 0.166626C14.5778 0.166626 13.9737 0.416849 13.5283 0.862247C13.0829 1.30765 12.8327 1.91174 12.8327 2.54163V12.8333H2.54102C1.91113 12.8333 1.30704 13.0835 0.861637 13.5289C0.416238 13.9743 0.166016 14.5784 0.166016 15.2083C0.166016 15.8382 0.416238 16.4423 0.861637 16.8877C1.30704 17.3331 1.91113 17.5833 2.54102 17.5833H12.8327V27.875C12.8327 28.5048 13.0829 29.1089 13.5283 29.5543C13.9737 29.9997 14.5778 30.25 15.2077 30.25C15.8376 30.25 16.4417 29.9997 16.8871 29.5543C17.3325 29.1089 17.5827 28.5048 17.5827 27.875V17.5833H27.8743C28.5042 17.5833 29.1083 17.3331 29.5537 16.8877C29.9991 16.4423 30.2493 15.8382 30.2493 15.2083C30.2493 14.5784 29.9991 13.9743 29.5537 13.5289C29.1083 13.0835 28.5042 12.8333 27.8743 12.8333H17.5827V2.54163Z" fill="#F8F8F8"/>
</svg>
