<svg width="77" height="78" viewBox="0 0 77 78" fill="none" xmlns="http://www.w3.org/2000/svg">
<mask id="mask0_117_5374" style="mask-type:alpha" maskUnits="userSpaceOnUse" x="0" y="0" width="77" height="78">
<path d="M58.8512 58.0523C58.2581 58.7016 57.6352 59.321 56.9824 59.9105L57.9265 60.8546C58.5769 60.2615 59.1993 59.6416 59.7935 58.9946L58.8512 58.0523Z" fill="black"/>
<path d="M57.9252 60.8546C53.5467 64.8457 48.0437 67.3891 42.1666 68.138L38.4994 77.6012L34.8375 68.145C28.9407 67.404 23.4174 64.8575 19.0244 60.8546L20.8949 58.9876C25.7211 63.3293 31.9831 65.7315 38.4748 65.7315C44.9665 65.7315 51.2286 63.3293 56.0547 58.9876L57.9252 60.8546Z" fill="black"/>
<path d="M77 39.1012L67.1904 42.8985C66.4748 48.9073 63.8867 54.5386 59.7928 58.9947L57.9258 57.1277C62.3063 52.3066 64.7403 46.0305 64.7559 39.5166C64.7715 33.0026 62.3675 26.715 58.0102 21.8729L59.8771 20.006C63.753 24.2587 66.2665 29.5746 67.0937 35.2688L77 39.1012Z" fill="black"/>
<path d="M58.0172 18.1354L56.1503 20.0024C51.3132 15.6065 45.0116 13.1708 38.4754 13.1708C31.9393 13.1708 25.6377 15.6065 20.8006 20.0024L18.9336 18.1354C23.2679 14.1527 28.7174 11.592 34.5498 10.7976L38.5 0.601227L42.4502 10.7976C48.2653 11.6017 53.6963 14.1617 58.0172 18.1354Z" fill="black"/>
<path d="M27.5637 52.3161L19.0252 60.8546C18.3747 60.2616 17.7524 59.6416 17.1582 58.9947L25.6932 50.4596C26.2672 51.1264 26.8926 51.7472 27.5637 52.3161V52.3161Z" fill="black"/>
<path d="M25.693 50.4596L23.819 52.3336C20.704 48.7886 18.9792 44.2349 18.964 39.5158C18.9488 34.7966 20.6443 30.2319 23.7364 26.6669L24.6769 27.6075L25.6122 28.5427C23.0076 31.6046 21.5841 35.4972 21.5989 39.517C21.6138 43.5368 23.0659 47.4187 25.693 50.4613V50.4596Z" fill="black"/>
<path d="M57.9892 39.4528C57.9968 44.1954 56.2691 48.777 53.1318 52.3336L51.2578 50.4596C53.8849 47.417 55.3371 43.535 55.3519 39.5152C55.3667 35.4954 53.9433 31.6029 51.3387 28.541L52.2739 27.6057L53.2145 26.6652C56.2997 30.2103 57.9959 34.7532 57.9892 39.4528Z" fill="black"/>
<path d="M51.3563 24.7965L50.4176 25.7405L49.4823 26.6758C46.4235 24.0345 42.5169 22.5813 38.4755 22.5813C34.4342 22.5813 30.5276 24.0345 27.4687 26.6758L26.5335 25.7405L25.5947 24.8017C29.156 21.6724 33.7347 19.9465 38.4755 19.9465C43.2164 19.9465 47.7951 21.6724 51.3563 24.8017V24.7965Z" fill="black"/>
<path d="M27.4682 26.6705C26.8014 27.2445 26.1807 27.8699 25.6118 28.541L24.6766 27.6058L23.736 26.6653L18.9402 21.873L17.0732 20.006C17.6663 19.3555 18.2863 18.7332 18.9332 18.139L20.8002 20.006L25.5942 24.8L26.533 25.7388L27.4682 26.6705Z" fill="black"/>
<path d="M58.851 58.0524C58.2579 58.7017 57.635 59.3211 56.9822 59.9106L49.3877 52.3161C50.0588 51.7472 50.6843 51.1264 51.2582 50.4596L58.851 58.0524Z" fill="black"/>
<path d="M59.7935 58.9946C59.1993 59.6416 58.5769 60.2615 57.9265 60.8546L56.9824 59.9105C57.6352 59.3245 58.2581 58.7051 58.8512 58.0523L59.7935 58.9946Z" fill="black"/>
<path d="M59.8774 20.0025L58.0104 21.873L53.2146 26.6688L52.2741 27.6093L51.3389 28.5446C50.77 27.8734 50.1492 27.248 49.4824 26.6741L50.4177 25.7388L51.3564 24.8L56.1505 20.006L58.0175 18.139C58.6644 18.7309 59.2844 19.352 59.8774 20.0025Z" fill="black"/>
<path d="M58.6426 15.7234L62.5418 19.6244L65.6288 12.6364L58.6426 15.7234Z" fill="black"/>
<path d="M18.4784 63.3685L14.5792 59.4675L11.4922 66.4555L18.4784 63.3685Z" fill="black"/>
<path d="M58.6426 63.3685L62.5418 59.4675L65.6288 66.4555L58.6426 63.3685Z" fill="black"/>
<path d="M18.4784 15.7234L14.5792 19.6244L11.4922 12.6364L18.4784 15.7234Z" fill="black"/>
<path d="M19.025 57.1276L17.158 58.9946C13.0581 54.5346 10.4689 48.8954 9.75861 42.8791L0 39.1012L9.8553 35.2863C10.6795 29.5846 13.1938 24.2609 17.0736 20.0023L18.9406 21.8729C14.5822 26.7151 12.1776 33.0035 12.1932 39.5182C12.2088 46.033 14.6435 52.3098 19.025 57.1311V57.1276Z" fill="black"/>
<path d="M51.2637 54.1918C47.7149 57.2706 43.1744 58.9657 38.4761 58.9657C33.7779 58.9657 29.2373 57.2706 25.6885 54.1918L27.5643 52.316C28.6722 53.2569 29.8964 54.0516 31.2068 54.6805L36.1063 44.5369C35.0193 44.0118 34.1374 43.1406 33.599 42.0601C33.0607 40.9796 32.8963 39.7509 33.1317 38.5669C33.3672 37.3828 33.9891 36.3105 34.8999 35.5181C35.8106 34.7258 36.9587 34.2582 38.1639 34.1889C39.3692 34.1196 40.5633 34.4524 41.5589 35.1351C42.5545 35.8179 43.2953 36.8118 43.6649 37.9611C44.0345 39.1103 44.0121 40.3497 43.6012 41.4848C43.1902 42.62 42.414 43.5865 41.3944 44.2328L47.4295 53.7523C48.1156 53.3206 48.7701 52.8407 49.388 52.316L51.2637 54.1918Z" fill="black"/>
</mask>
<g mask="url(#mask0_117_5374)">
<path d="M96.6889 39.4523L38.5 -18.7366L-19.6889 39.4523L38.5 97.6412L96.6889 39.4523Z" fill="url(#paint0_linear_117_5374)"/>
<path d="M96.6889 39.4523L38.5 -18.7366L-19.6889 39.4523L38.5 97.6412L96.6889 39.4523Z" fill="url(#paint1_linear_117_5374)" fill-opacity="0.5"/>
</g>
<defs>
<linearGradient id="paint0_linear_117_5374" x1="9.40431" y1="10.3566" x2="67.5944" y2="68.5467" gradientUnits="userSpaceOnUse">
<stop offset="0.453125" stop-color="#6838EC"/>
<stop offset="1" stop-color="#570A57"/>
</linearGradient>
<linearGradient id="paint1_linear_117_5374" x1="9.40431" y1="10.3566" x2="67.5944" y2="68.5467" gradientUnits="userSpaceOnUse">
<stop stop-color="#6838EC"/>
<stop offset="1" stop-color="#E94560"/>
</linearGradient>
</defs>
</svg>
