<svg width="115" height="50" viewBox="0 0 115 50" fill="none" xmlns="http://www.w3.org/2000/svg">
<path d="M21.7953 18.0122L22.2016 21.7961C23.0142 20.3162 24.1147 19.1558 25.5028 18.3148C26.8911 17.4739 28.4994 17.0534 30.3278 17.0534C32.0884 17.0534 33.5614 17.4403 34.7464 18.2139C35.9314 18.9875 36.6594 20.0639 36.9303 21.443C37.8445 20.0975 38.9619 19.038 40.2823 18.2644C41.6367 17.4572 43.0587 17.0534 44.5486 17.0534C46.6817 17.0534 48.3578 17.6589 49.5767 18.8698C50.8295 20.047 51.4728 21.5775 51.5067 23.4611V39.3542H45.8691V25.6306C45.8014 24.6216 45.5644 23.7806 45.1581 23.108C44.7517 22.4016 44.0069 22.0148 42.9234 21.9475C41.7044 21.9475 40.6548 22.3344 39.7745 23.108C38.8942 23.848 38.2 24.8234 37.6922 26.0344C37.2181 27.2116 36.9811 28.4561 36.9811 29.768V39.3542H31.242V25.6306C31.2081 24.6216 30.9711 23.7806 30.5309 23.108C30.0908 22.4016 29.312 22.0148 28.1947 21.9475C27.0095 21.9475 25.9769 22.3344 25.0966 23.108C24.2162 23.848 23.5391 24.8234 23.065 26.0344C22.5909 27.2116 22.3539 28.4561 22.3539 29.768V39.3542H16.6656V18.0122H21.7953Z" fill="white"/>
<path d="M68.1066 39.9092C66.075 39.9092 64.2636 39.4383 62.6722 38.4964C61.0808 37.5547 59.8281 36.2261 58.9139 34.5106C57.9997 32.7616 57.5425 30.7097 57.5425 28.3552C57.5425 25.967 58.0336 23.932 59.0155 22.2503C59.9974 20.5684 61.3349 19.2903 63.0278 18.4158C64.7206 17.5075 66.6506 17.0534 68.8177 17.0534C70.3752 17.0534 71.848 17.3562 73.2363 17.9617C74.6583 18.5334 75.7756 19.3239 76.5883 20.333V0H82.2258V39.3542H76.5375V36.4783C75.488 37.4873 74.252 38.3114 72.83 38.9506C71.4417 39.5897 69.8674 39.9092 68.1066 39.9092ZM69.935 35.1161C71.5941 35.1161 72.9824 34.7123 74.0997 33.9052C75.2509 33.0978 76.0634 31.9711 76.5375 30.5247V25.9839C76.1313 24.672 75.3186 23.5956 74.0997 22.7548C72.9145 21.9139 71.5264 21.4934 69.935 21.4934C68.7161 21.4934 67.5988 21.7961 66.583 22.4016C65.6011 22.9734 64.8053 23.7639 64.1959 24.773C63.5864 25.782 63.2817 26.9425 63.2817 28.2542C63.2817 29.5325 63.5864 30.693 64.1959 31.7356C64.8053 32.7783 65.6011 33.6025 66.583 34.2078C67.5988 34.8133 68.7161 35.1161 69.935 35.1161Z" fill="white"/>
<path d="M100.788 50C99.0269 50 97.5202 49.7981 96.2674 49.3945C95.0145 48.9909 93.8972 48.4695 92.9153 47.8305C91.9672 47.1914 91.07 46.5019 90.2235 45.7619L93.5755 41.8769C94.5575 42.785 95.5902 43.5419 96.6736 44.1473C97.791 44.7528 99.1285 45.0555 100.686 45.0555C102.785 45.0555 104.461 44.5509 105.714 43.5419C106.967 42.5328 107.61 41.1369 107.644 39.3542V35.7719C106.967 36.9492 105.9 37.9414 104.444 38.7487C102.988 39.5223 101.228 39.9092 99.1624 39.9092C97.1985 39.9092 95.3871 39.4214 93.728 38.4459C92.0688 37.4369 90.7483 36.0747 89.7664 34.3592C88.7845 32.6437 88.2935 30.7097 88.2935 28.557C88.2935 26.337 88.8183 24.3694 89.868 22.6539C90.9177 20.9048 92.2889 19.5425 93.9819 18.567C95.6749 17.558 97.4863 17.0534 99.4163 17.0534C101.312 17.0534 102.988 17.3898 104.444 18.0625C105.934 18.7017 107.018 19.5089 107.695 20.4844L108.101 18.0122H113.332V39.4552C113.332 41.4397 112.791 43.2223 111.707 44.8033C110.658 46.4178 109.185 47.6791 107.288 48.5873C105.392 49.5291 103.225 50 100.788 50ZM94.0327 28.4056C94.0327 29.6837 94.3205 30.8442 94.8961 31.887C95.5055 32.9297 96.3181 33.7537 97.3339 34.3592C98.3836 34.9647 99.5517 35.2673 100.838 35.2673C102.531 35.2673 103.953 34.8637 105.105 34.0566C106.29 33.2156 107.136 32.1225 107.644 30.777V26.1352C107.204 24.7898 106.357 23.7134 105.105 22.9061C103.886 22.0989 102.464 21.6953 100.838 21.6953C98.9083 21.6953 97.2831 22.3175 95.9627 23.562C94.676 24.8066 94.0327 26.4211 94.0327 28.4056Z" fill="white"/>
<path d="M0 34.1667C0 32.8006 0.527778 31.6258 1.58333 30.6422C2.63889 29.6586 3.80556 29.1667 5.08333 29.1667C6.25 29.1667 7.36111 29.6586 8.41667 30.6422C9.47222 31.6258 10 32.8006 10 34.1667C10 35.6969 9.47222 36.9264 8.41667 37.8553C7.36111 38.7297 6.25 39.1667 5.08333 39.1667C3.80556 39.1667 2.63889 38.7297 1.58333 37.8553C0.527778 36.9264 0 35.6969 0 34.1667Z" fill="white"/>
</svg>
