<svg width="25" height="25" viewBox="0 0 25 25" fill="none" xmlns="http://www.w3.org/2000/svg">
<path fill-rule="evenodd" clip-rule="evenodd" d="M17.0047 15.5198L22.6088 21.124C22.8058 21.3211 22.9164 21.5884 22.9163 21.867C22.9162 22.1457 22.8054 22.4129 22.6083 22.6099C22.4112 22.8069 22.1439 22.9175 21.8652 22.9174C21.5866 22.9173 21.3194 22.8065 21.1224 22.6094L15.5182 17.0052C13.8429 18.3028 11.7362 18.9134 9.62669 18.7129C7.51716 18.5123 5.56326 17.5157 4.16248 15.9256C2.76169 14.3356 2.01926 12.2717 2.08619 10.1537C2.15313 8.03571 3.02442 6.02277 4.52281 4.52438C6.0212 3.02599 8.03414 2.1547 10.1521 2.08777C12.2701 2.02083 14.334 2.76327 15.9241 4.16405C17.5141 5.56483 18.5107 7.51873 18.7113 9.62826C18.9118 11.7378 18.3012 13.8445 17.0036 15.5198H17.0047ZM10.4161 16.6667C12.0737 16.6667 13.6635 16.0082 14.8356 14.8361C16.0077 13.664 16.6661 12.0743 16.6661 10.4167C16.6661 8.75907 16.0077 7.16935 14.8356 5.99725C13.6635 4.82515 12.0737 4.16667 10.4161 4.16667C8.75854 4.16667 7.16883 4.82515 5.99672 5.99725C4.82462 7.16935 4.16614 8.75907 4.16614 10.4167C4.16614 12.0743 4.82462 13.664 5.99672 14.8361C7.16883 16.0082 8.75854 16.6667 10.4161 16.6667Z" fill="#F8F8F8"/>
</svg>
