<svg width="34" height="34" viewBox="0 0 34 34" fill="none" xmlns="http://www.w3.org/2000/svg">
<path d="M28.7928 3.95098C27.2548 3.60653 25.6836 3.43195 24.1075 3.4304C22.619 3.33589 21.1266 3.53656 19.7159 4.02089C18.3052 4.50521 17.0043 5.26363 15.8877 6.25252C14.4173 7.72294 12.9606 9.1888 11.5176 10.6501C9.85991 10.472 5.92812 10.3761 3.29779 13.0338C3.04263 13.2905 2.89941 13.6377 2.89941 13.9997C2.89941 14.3616 3.04263 14.7088 3.29779 14.9655L18.7784 30.4734C19.035 30.7286 19.3823 30.8718 19.7442 30.8718C20.1061 30.8718 20.4533 30.7286 20.71 30.4734C23.3814 27.7335 23.2992 23.8702 23.1348 22.2537L27.5324 17.8698C31.9026 13.4996 29.9162 5.29354 29.834 4.95105C29.7707 4.70396 29.6397 4.47943 29.4558 4.30274C29.2718 4.12606 29.0422 4.00423 28.7928 3.95098ZM25.5597 15.9381L20.6826 20.7878C20.5247 20.9473 20.4083 21.1432 20.3438 21.3581C20.2793 21.5731 20.2686 21.8007 20.3127 22.0208C20.6087 23.8535 20.3511 25.7329 19.5729 27.4184L6.32541 14.1435C8.03765 13.3554 9.95171 13.1162 11.8053 13.4585C12.0246 13.4871 12.2475 13.4621 12.4551 13.3858C12.6626 13.3094 12.8486 13.184 12.9971 13.0201C12.9971 13.0201 14.9151 11.0337 17.8057 8.14306C19.5831 6.71572 21.8335 6.01126 24.1075 6.17032C25.1772 6.17562 26.2446 6.26725 27.2995 6.44431C27.6283 8.40336 28.1489 13.3489 25.5597 15.9381Z" fill="#F8F8F8"/>
<path d="M21.6828 14.8011C23.196 14.8011 24.4227 13.5744 24.4227 12.0612C24.4227 10.548 23.196 9.32129 21.6828 9.32129C20.1696 9.32129 18.9429 10.548 18.9429 12.0612C18.9429 13.5744 20.1696 14.8011 21.6828 14.8011Z" fill="#F8F8F8"/>
<path d="M6.98309 22.6099C4.24316 23.9798 4.24316 29.4597 4.24316 29.4597C6.77906 29.3873 9.20674 28.4163 11.093 26.7197L6.98309 22.6099Z" fill="#F8F8F8"/>
</svg>
